<?xml version="1.0" encoding="utf-8"?>
<!-- Generator: Adobe Illustrator 24.0.0, SVG Export Plug-In . SVG Version: 6.00 Build 0)  -->
<svg version="1.1" id="Capa_1" xmlns="http://www.w3.org/2000/svg" xmlns:xlink="http://www.w3.org/1999/xlink" x="0px" y="0px"
	 viewBox="0 0 1200 887.7" style="enable-background:new 0 0 1200 887.7;" xml:space="preserve">
<style type="text/css">
	.st0{fill:#CED2D6;}
	.st1{fill:#FFE2CF;}
	.st2{fill:#FFFFFF;}
	.st3{clip-path:url(#SVGID_3_);fill:#FFD5BD;}
	.st4{fill:#5D9E9B;}
	.st5{fill:#5D9D9A;}
	.st6{fill:#212121;}
	.st7{fill:#FFC5B8;}
	.st8{fill:#FFFFFF;stroke:#222222;stroke-width:5.5331;stroke-miterlimit:10;}
	.st9{fill:#222222;}
	.st10{fill:#EAA29B;}
	.st11{fill:#F4B6AB;}
	.st12{fill:#FFEBC7;}
	.st13{fill:#5D4037;}
	.st14{fill:none;stroke:#5D4037;stroke-width:16.2558;stroke-linecap:round;stroke-miterlimit:10;}
	.st15{fill:#EAA42C;}
	.st16{fill:#DFA26F;}
	.st17{fill:#E4E6E8;}
	.st18{fill:#FFD56C;}
	.st19{fill:#DDAD7A;}
	.st20{fill:#FFEACC;}
	.st21{fill:#F3A94A;}
	.st22{fill:#FFFFFF;stroke:#222222;stroke-width:2.3249;stroke-miterlimit:10;}
	.st23{fill:none;stroke:#5D4037;stroke-width:6.8303;stroke-linecap:round;stroke-miterlimit:10;}
	.st24{fill:#FFCFCF;}
	.st25{fill:none;stroke:#212121;stroke-width:5.2043;stroke-miterlimit:10;}
	.st26{fill:none;stroke:#212121;stroke-width:5.168;stroke-miterlimit:10;}
	.st27{fill:#333333;}
	.st28{fill:#FC8775;}
	.st29{clip-path:url(#SVGID_5_);fill:#FFD5BD;}
	.st30{fill:#FFD86C;}
	.st31{fill:#77554D;}
	.st32{fill:#F9C953;}
	.st33{fill:#EFEFEF;}
	.st34{fill:#F7AB3E;}
	.st35{fill:#FFD0B6;}
	.st36{fill:none;stroke:#5D4037;stroke-width:30.501;stroke-linecap:round;stroke-miterlimit:10;}
	.st37{fill:none;stroke:#5D4037;stroke-width:12.0648;stroke-linecap:round;stroke-miterlimit:10;}
	.st38{fill:none;stroke:#F7AB3E;stroke-width:11.5338;stroke-miterlimit:10;}
	.st39{fill:#D3965F;}
	.st40{fill:#7F5D57;}
	.st41{fill:#FFD6C2;}
	.st42{fill:none;stroke:#333333;stroke-width:6;stroke-miterlimit:10;}
	.st43{enable-background:new    ;}
	.st44{clip-path:url(#SVGID_8_);}
	.st45{clip-path:url(#SVGID_9_);}
	.st46{fill:#EAEAEA;}
	.st47{fill:none;stroke:#F7AB3E;stroke-width:2.4908;stroke-miterlimit:10;}
	.st48{fill:none;stroke:#333333;stroke-width:1.2958;stroke-miterlimit:10;}
	.st49{clip-path:url(#SVGID_11_);}
	.st50{clip-path:url(#SVGID_12_);}
</style>
<g>
	<g>
		<path class="st19" d="M934.4,373.4c0,0,2.5,9.5,2.9,14.1l-35,2c0,0-3.2-7.4,7-10.1s7.1-5.7,7.1-5.7L934.4,373.4z"/>
		<g>
			<path class="st27" d="M917.8,380c-0.4-1.2-1.7-2.5-3-2.7c-0.3-0.1-0.6,0.4-0.2,0.6c0.5,0.3,1.1,0.5,1.6,0.9
				c0.5,0.4,0.8,0.9,1.2,1.4C917.5,380.4,917.9,380.3,917.8,380L917.8,380z"/>
		</g>
		<g>
			<path class="st27" d="M915.8,381.3c-0.1-1.6-2.1-2.9-3.6-3.1c-0.4,0-0.6,0.6-0.2,0.8c0.7,0.3,1.3,0.5,1.9,1c0.6,0.4,1,1,1.5,1.5
				C915.6,381.5,915.8,381.4,915.8,381.3L915.8,381.3z"/>
		</g>
		<g>
			<path class="st27" d="M937.3,388.6c-3.1-0.3-6.4,0.1-9.4,0.3c-2.9,0.2-5.8,0.3-8.6,0.5c-5.5,0.3-10.9,0.6-16.4,0.8
				c-1,0-1,1.7,0,1.6c5.5-0.2,11.1-0.6,16.6-0.9c3-0.2,5.9-0.4,8.9-0.6c3-0.2,6.2-0.2,9.2-0.8C937.9,389.4,937.8,388.7,937.3,388.6
				L937.3,388.6z"/>
		</g>
	</g>
	<g>
		<path class="st19" d="M451.4,678.6c0,0-1.6,10.3-1.5,14.9l35-1.6c0,0,2.5-7.7-8-9.3c-10.4-1.6-7.6-4.7-7.6-4.7L451.4,678.6z"/>
		<g>
			<path class="st27" d="M469,684.2c0.3-0.5,0.6-1.1,1-1.5c0.4-0.5,1-0.7,1.5-1.1c0.3-0.2,0.1-0.7-0.2-0.6c-1.2,0.4-2.4,1.8-2.7,3
				C468.5,684.3,468.8,684.5,469,684.2L469,684.2z"/>
		</g>
		<g>
			<path class="st27" d="M471,685.2c0.5-0.5,0.8-1.1,1.3-1.6c0.6-0.5,1.2-0.8,1.8-1.2c0.4-0.2,0.1-0.9-0.3-0.8
				c-1.4,0.3-3.2,1.9-3.2,3.4C470.7,685.2,470.9,685.3,471,685.2L471,685.2z"/>
		</g>
		<g>
			<path class="st27" d="M450.1,695.5c3.1,0.3,6.4,0,9.5-0.1c2.9-0.1,5.8-0.2,8.7-0.3c5.5-0.2,10.9-0.4,16.4-0.8c1-0.1,1-1.7,0-1.6
				c-5.5,0.4-11.1,0.6-16.6,0.9c-3,0.1-5.9,0.2-8.9,0.4c-3,0.2-6.2,0.1-9.2,0.7C449.4,694.8,449.6,695.5,450.1,695.5L450.1,695.5z"
				/>
		</g>
	</g>
	<g>
		<path class="st19" d="M397.1,677.2c0,0-2.2,9.8-2.5,14.3l35,1.1c0,0,3-7.4-7.2-9.9c-10.3-2.4-7.2-5.6-7.2-5.6L397.1,677.2z"/>
		<g>
			<path class="st27" d="M414.2,683.7c0.3-0.5,0.7-1,1.1-1.4c0.5-0.4,1-0.6,1.6-1c0.3-0.2,0.1-0.6-0.2-0.6c-1.3,0.3-2.5,1.6-2.9,2.8
				C413.7,683.8,414.1,683.9,414.2,683.7L414.2,683.7z"/>
		</g>
		<g>
			<path class="st27" d="M416.2,684.8c0.5-0.5,0.9-1.1,1.5-1.5c0.6-0.5,1.2-0.7,1.9-1c0.5-0.2,0.1-0.8-0.3-0.8
				c-1.4,0.2-3.3,1.7-3.4,3.2C415.9,684.9,416.1,684.9,416.2,684.8L416.2,684.8z"/>
		</g>
		<g>
			<path class="st27" d="M394.4,693.5c3,0.5,6.2,0.4,9.2,0.6c3,0.1,5.9,0.3,8.9,0.4c5.5,0.2,11.1,0.4,16.6,0.5c1,0,1-1.6,0-1.6
				c-5.5,0-10.9-0.2-16.4-0.4c-2.9-0.1-5.8-0.2-8.7-0.3c-3.1-0.1-6.4-0.4-9.5-0.1C394.1,692.7,393.9,693.4,394.4,693.5L394.4,693.5z
				"/>
		</g>
	</g>
	<path class="st20" d="M665.6,622.3c0,0-61-23.1-105.2,2.1c-44.2,25.2-77.8,71.5-42.1,124.1c35.8,52.6,109.4,44.2,134.7,33.7
		c25.2-10.5,88.4-31.6,88.4-31.6s46.3-14.7,8.4-67.3S665.6,622.3,665.6,622.3z"/>
	<g>
		<path class="st34" d="M784.4,627.8c0,0,0.2-9.8,1-14.3l34.8,7.6c0,0,1.2,8-9.5,7.8s-8.4,3.4-8.4,3.4L784.4,627.8z"/>
		<g>
			<path class="st27" d="M802.4,626c0.1,1.3,1,2.8,2.2,3.4c0.3,0.2,0.6-0.2,0.4-0.5c-0.5-0.4-0.9-0.8-1.3-1.3
				c-0.3-0.5-0.6-1.1-0.8-1.7C802.7,625.7,802.3,625.7,802.4,626L802.4,626z"/>
		</g>
		<g>
			<path class="st27" d="M804.7,625.4c-0.3,1.6,1.3,3.4,2.6,4c0.4,0.2,0.7-0.5,0.4-0.7c-0.6-0.5-1.2-0.9-1.7-1.5
				c-0.4-0.6-0.7-1.2-1.1-1.8C805,625.2,804.7,625.2,804.7,625.4L804.7,625.4z"/>
		</g>
		<g>
			<path class="st27" d="M785.6,612.4c2.9,1.1,6.2,1.6,9.2,2.3c2.9,0.6,5.8,1.3,8.7,1.9c5.4,1.2,10.9,2.4,16.3,3.7
				c1,0.2,1.5-1.3,0.4-1.6c-5.5-1.3-11-2.5-16.5-3.6c-2.9-0.6-5.8-1.2-8.7-1.8c-3-0.6-6.2-1.5-9.3-1.7
				C785.2,611.5,785.2,612.2,785.6,612.4L785.6,612.4z"/>
		</g>
	</g>
	<g>
		<path class="st34" d="M757.3,601.4c0,0,2.8-9.4,4.8-13.5l31,16.4c0,0-1.1,8-11.2,5c-10.1-3-8.9,1-8.9,1L757.3,601.4z"/>
		<g>
			<path class="st27" d="M774.9,604.4c-0.2,1.3,0.2,2.9,1.1,3.9c0.3,0.2,0.7-0.1,0.5-0.4c-0.3-0.5-0.7-1-0.9-1.6
				c-0.2-0.6-0.2-1.2-0.3-1.8C775.3,604.2,774.9,604.1,774.9,604.4L774.9,604.4z"/>
		</g>
		<g>
			<path class="st27" d="M777.3,604.4c-0.6,1.4,0.2,3.5,1.4,4.4c0.3,0.3,1-0.1,0.7-0.5c-0.5-0.6-0.9-1.2-1.2-1.9
				c-0.2-0.7-0.3-1.3-0.5-2C777.6,604.3,777.3,604.3,777.3,604.4L777.3,604.4z"/>
		</g>
		<g>
			<path class="st27" d="M762.7,586.9c2.5,1.8,5.5,3.2,8.2,4.6c2.5,1.4,5.1,2.7,7.6,4.1c4.8,2.6,9.7,5.1,14.4,7.8
				c0.9,0.5,1.7-0.9,0.8-1.4c-4.8-2.7-9.7-5.3-14.7-7.8c-2.6-1.4-5.2-2.7-7.9-4.1c-2.7-1.4-5.4-3-8.3-4
				C762.5,586,762.3,586.7,762.7,586.9L762.7,586.9z"/>
		</g>
	</g>
	<path class="st4" d="M706.6,693.2l42.5-9.7c0,0,33.8-6.8,44-26.3l10.8-24.7l-24.7-6c0,0-5.8,14.7-11.5,18.5
		c-5.7,3.8-23.5,8.4-35.2,11c0,0-2.2,0.6-2.8-0.6c-0.3-0.5-0.5-1,1.2-2l17.1-7.1c0,0,9.7-3.5,13.6-9.4c3.9-6,14.6-24.6,14.6-24.6
		l-21.8-12.9c0,0-15.1,23.5-23.7,27.6c-12.7,6.1-54.4,14.7-54.4,14.7"/>
	<path class="st27" d="M920.3,233c0,0-14.5-10.7-15.3-24.7l13.3,15.2L920.3,233z"/>
	<path class="st1" d="M868.8,236.8c-5-4.1-12.7-13.8-12.7-13.8c-1-1.4-0.1-1.7-0.1-1.7c0.6-0.5,1.6,0.5,1.6,0.5s2.2,2.6,2.8,3.3
		c0.2,0.3,0.5,0.5,0.7,0.3c0.2-0.2-0.2-0.7-0.2-0.7l-4.5-5.8c0,0-1.2-1.3-0.5-2c0.7-0.7,1.8,0.4,1.8,0.4l5.1,5.8
		c0,0,0.4,0.6,0.7,0.3c0.2-0.2-0.3-0.7-0.3-0.7s-4.7-6-5.3-6.8c-0.5-0.8-1-1.4-0.4-1.9s1.6,0.1,1.6,0.1l6.2,6.7c0,0,0.3,0.4,0.5,0.2
		c0.2-0.2-0.1-0.5-0.1-0.5l-3.6-4.6c0,0-1.2-1.4-0.4-2c0.8-0.6,1.9,0.4,1.9,0.4s5.5,6.3,8.9,8.4c1.1,0.7,0.4-0.9,0.4-0.9
		c-0.1-0.1-1.5-2.6-1.8-3.1c-0.6-1-0.9-1.4-0.3-1.9c0.8-0.6,1.8,0.6,1.8,0.6s5,6.1,7.8,8.2c0.3,0.2,0.8,0.5,1.1,0.7
		c9.5,6,15.6,11.3,32.4,0.1c0,0,9.1,9.8,12.9,19.6C926.8,246,900.1,265.5,868.8,236.8L868.8,236.8z"/>
	<path class="st4" d="M906.1,253c0,0-8.5-9.9-5.8-21.6c0,0,7.4-3.2,11.3-6.2l-0.5,24L906.1,253z"/>
	<path class="st20" d="M110.2,554.8c0,0,28.4-11.8,49,1.1c20.6,12.9,36.3,36.4,19.6,63.2c-16.7,26.8-54.9,25.8-67.3,22.4
		c-16.1-4.4-38.3-16.8-38.3-16.8s-19.9-12.1-2.2-38.9C88.7,559.1,110.2,554.8,110.2,554.8z"/>
	<path class="st20" d="M492.7,241.6c-48.6,5.9-133.9,33.7-207,93.2s-14.1,119.5,0.7,131.6c19.1,15.6,89.6,49.4,172.4,54.8
		c53.1,3.4,125.4,17.2,258.6-9.1c0,0,149.4-37.1,135-122.1c0,0-7.7-61.2-43.4-99.2c-29.8-31.8-23.3-28.8-77.9-65.9
		c-28.2-19.1-89.1-55.8-152.2-21.1c-34.6,19-83.1,30.5-83.1,30.5"/>
	<path class="st4" d="M750.3,436.8c0,0-2.4-1.3,8.7-10.1s15.7-14.7,17.1-21.1s3.4-9.2,9.2-11.6c5.8-2.4,8.7-6.5,9.5-14.7
		s-0.4-5.7,5-12.6s4.9-12.4,0.1-14.7c-4.8-2.4-12.3,2.2-17.1,10.5s-7,7.8-10.2,8.4c-3.5,0.7-9.6,5.4-11.8,15.8
		c-2.3,10.4-8.2,14.2-11.6,17.1s-2.7,32.2-2.7,32.2L750.3,436.8z"/>
	<path class="st4" d="M110.5,589.4c0,0-1.8-2.8-8.7-10.1c-9.7-10.3-15.7-14.7-17.1-21.1c-1.4-6.4-0.8-10.2-6.6-12.5
		c-5.8-2.4-13.4-5.6-14.2-13.9s2.5-5.6-2.9-12.5s-4.9-12.4-0.1-14.7c4.8-2.4,12.3,2.2,17.1,10.5c4.8,8.2,7,7.8,10.2,8.4
		c3.5,0.7,9.6,5.4,11.8,15.8s6.1,15.5,9,18.9c6.8,7.9,5.3,30.4,5.3,30.4L110.5,589.4z"/>
	<g>
		<path class="st27" d="M62.8,509.2c6.5,8.4,12.9,17,19,25.7c7.2,10.3,14,21,19.9,32.1c3.1,5.8,5.9,11.7,8.2,17.9
			c0.3,0.9,1.8,0.5,1.5-0.4c-4.2-11.3-10.1-22-16.4-32.3c-6.5-10.5-13.5-20.8-21-30.6c-3.4-4.4-6.8-8.8-10.4-13
			C63.1,508,62.5,508.7,62.8,509.2L62.8,509.2z"/>
	</g>
	<g>
		<path class="st27" d="M795.2,358.4c-9.9,15.1-20,30-31.3,44c-3.4,4.3-7,8.6-10.6,12.8c-0.6,0.7,0.4,1.8,1.1,1.1
			c12.1-14.2,23.5-29,33.7-44.5c2.8-4.2,5.4-8.5,7.9-12.9C796.3,358.4,795.5,357.9,795.2,358.4L795.2,358.4z"/>
	</g>
	<path class="st47" d="M582.1,826.5c0,0,35.1-36.5,18.2-78.5"/>
	<path class="st19" d="M545.2,633.9c0,0,54.9-14.9,89,2l-15.9,19.9c0,0-51.8-13.9-72.3-9.1L545.2,633.9z"/>
	<path class="st2" d="M619.4,669c0,0-5.8-11-19.7-13.4c0,0-3.9-9.3,3.9-28.8c0,0,15.5-2.5,27.9,8"/>
	<path class="st20" d="M910.6,583.6c-21,2.6-49.4,3.3-60.5,56.2c-7.8,36.9,44.4,69.6,74.8,80.1c30.4,10.5,88.9,14.8,143.2-1.6
		c74.1-22.3,80.5-80.2,71.7-105c-8.6-24.3-17.5-39.1-52.5-47.9c-34.5-8.7-74.4,4.2-96.3,2.5S928.6,581.4,910.6,583.6z"/>
	<path class="st4" d="M670.3,188c10.3,13.1,12.5,21.9,16.1,71.2l1.3,32.3c0,0,0,0,0,0.1l19.1,41.7c0,0.1,0,0.2-0.1,0.2l-26.7,2
		c-0.1,0-0.1,0-0.2-0.1l-21.9-37.3c0,0,0,0,0-0.1l-1.7-31.7c0-0.2-0.3-0.2-0.3,0l-3.2,26.7c0,0,0,0,0,0c0,0.2,0.1,4.4,2,8.8
		c1.9,4.3,9.1,31.3,9.8,33.9c0,0.1,0,0.2-0.2,0.2l-26.5,0.5c-0.1,0-0.1,0-0.2-0.1c-0.8-1.9-12.1-30.2-12.3-42.6
		c-0.3-12.9,4.3-53.1,4.6-76.3c0.3-23.3,2.5-27.8,6.1-31.1c3.5-3.3,11.4-5.8,19.2-4.6C662.9,183,665.9,182.4,670.3,188z"/>
	<path class="st2" d="M626.6,247.5c0,0,46,4.2,61.8,1.3c0,0-2.9-48.4-16-61.8c-13.1-13.4-35.2-5-35.2-5S625,218.8,626.6,247.5z"/>
	<path class="st27" d="M941.9,252.6l-23.4-44l-10.9-14.7c0,0,4-2.1,7.5-3.3c0,0,6.4,0.2,12.6,7.7c5.1,6.1,11.9,11.1,14.4,12.6
		c8.8,5.5,32.7,16.8,20.7,36.2c-3.2,5.1-12.6,16.1-23.8,4.1"/>
	<path class="st4" d="M945.9,238.2c12.8,34.2,13.8,37.4,14.6,58.4c0,0,0,0,0,0c0,0.4-0.6,24.5,1.3,32.4
		c2.5,10.6,17.4,38.7,19.1,41.7c0.1,0.1,0,0.3-0.2,0.3l-26.6,2c-0.1,0-0.1,0-0.2-0.1c-1.2-1.7-18.9-27.3-21.9-37.3
		c-2.1-6.9-2.2-24.7-2.1-33.8c0-0.3-0.4-0.3-0.4,0c-0.7,8-1.9,22.4-2.2,28.4c-0.1,2.3-0.4,3.5,1.4,9.2c1.4,4.5,9,31,9.8,33.9
		c0,0.1-0.1,0.2-0.2,0.3l-26.4,0.5c-0.1,0-0.2,0-0.2-0.1c-0.8-2.1-12.1-30.2-12.3-42.6c-0.3-12.9,4.3-53.1,4.6-76.3s3-24.2,6-28
		c4-5,13-5.7,20.8-4.5C938.5,223.6,943.6,232,945.9,238.2z"/>
	<path class="st24" d="M646.3,588c-2.9-8-10.5-6-11.2,0.6c-0.7,6.7,5.7,14.2,5.7,14.2s9.7-1.5,13.6-7
		C658.2,590.3,653.8,583.9,646.3,588z"/>
	<g>
		<polygon class="st39" points="509,270.4 756,279.5 756,433.7 485.8,428.2 		"/>
	</g>
	<g>
		<polygon class="st40" points="492.5,433.7 509,269.5 441.2,309.1 441.2,471.3 		"/>
	</g>
	
		<rect x="938.7" y="592.7" transform="matrix(0.9993 -3.731240e-02 3.731240e-02 0.9993 -22.3656 35.8107)" class="st40" width="19.1" height="48.9"/>
	<g>
		<path class="st4" d="M1017.9,477.9c47.7,24.3,13.5,69.1,13.5,69.1s8.4,21.3-2.4,42.4c-9.3,18.2-24.5,28.8-58,22.4
			c0,0-27,28.7-56.4-2.5c0,0-33.1,5.9-49.7-21.5c-13-21.6-4.1-46.2-4.1-46.2s-19-17.3-10.9-45.6c0,0,8.1-28.2,33.7-26.1
			c0,0-3.2-30.4,27.4-40.4c0,0,32.5-10.6,48.4,16.2c0,0,11.6-17,40.7-7.8C1011,441.5,1022.3,455.6,1017.9,477.9z"/>
	</g>
	<g>
		<path class="st30" d="M721.9,270.9c8,4.9,3.4,14.4,3.4,14.4c15.7,24.8,6.4,50.3,0,62.6c-22.4,43-74.8,29.1-74.8,29.1
			s-6.2,4.6-12.5-0.9c0,0-5.8-5.3-2.2-12.4c0,0-18.7-37.5,8.9-71.5c0,0,20.2-28.8,64.2-20.1C709,272,714.8,266.5,721.9,270.9"/>
	</g>
	<path class="st28" d="M838.4,185.2c0,0-24.2-13.3-43.3,8.2c-19.1,21.5-3.1,57.7,9.8,70.2c12.9,12.5,17.2,14.4,23.8,12.9
		s7.8-4.7,15.6-2.3c7.8,2.3,13.3,3.5,25.7-6.6c12.5-10.1,26.5-31.2,21.1-60.1c0,0-2.7-29.6-32.4-25.7
		C835.4,184.8,838.4,185.2,838.4,185.2z"/>
	<g>
		<path class="st27" d="M840.9,194.9c0.3-1.2,0-2.5-0.1-3.7c-0.1-1.2-0.3-2.4-0.4-3.5c-0.2-2.1-0.4-4.1-0.4-6.2
			c0-4.6,0.8-9,1.9-13.5c0.3-1.3-1.6-1.8-2-0.5c-1.2,4.5-2,9.2-2,13.9c0,2.1,0.2,4.2,0.4,6.4c0.2,1.2,0.3,2.4,0.6,3.6
			c0.2,1.2,0.3,2.7,1.1,3.7C840.2,195.4,840.8,195.4,840.9,194.9L840.9,194.9z"/>
	</g>
	<g>
		<path class="st4" d="M882.3,165.2c0,0-27.4-11.9-37.8,12.2C844.5,177.4,864.1,188.8,882.3,165.2z"/>
	</g>
	<g>
		<path class="st27" d="M700.6,468.9c0.6-13.1,0.4-26.3,0.4-39.5c0-13.1,0-26.2,0-39.3c0-7.4,0-14.8-0.1-22.2c0-1.1-1.6-1.1-1.6,0
			c-0.3,26.2-0.1,52.5,0,78.8c0,7.4,0,14.8,0.4,22.2C699.8,469.5,700.6,469.5,700.6,468.9L700.6,468.9z"/>
	</g>
	<g>
		<circle class="st34" cx="513" cy="321.6" r="52"/>
		<g>
			<path class="st4" d="M577.5,257.3c0,0-31.2-18.8-47.7,8.7C529.8,265.9,551.6,282.9,577.5,257.3z"/>
		</g>
	</g>
	<circle class="st34" cx="594.3" cy="201.7" r="52"/>
	<g>
		<path class="st4" d="M662.3,139.1c0,0-31.2-18.8-47.7,8.7C614.6,147.8,636.5,164.8,662.3,139.1z"/>
	</g>
	<path class="st0" d="M1028.6,530.7c9.7,13.5,13.5,18.3,17,67.6l-2.1,34.2l18.9,40.5l-23.4,1.6c0,0-19.1-27-22-37.4
		c-2-7.2,1.4-28.5,1.4-28.5l-6.7,23.4c0,0,0,4.3,2,8.8c2,4.6,9.9,34.1,9.9,34.1l-26.8,0.5c0,0-12.1-29.8-12.4-42.7
		c-0.3-12.9,8.5-52,8.7-75.2c0.3-23.3,8.7-26.2,12.3-29.5c3.5-3.3-0.1-4.8,7.7-3.5C1021,526,1024.8,525.4,1028.6,530.7z"/>
	<path class="st4" d="M296.2,276.8c0,0-5.3,35.9-7.4,45.1c-3.1,14.1-14.7,52.3-14.7,52.3l33.1-1.1l11.7-54l6-23.8
		c0.2-0.8,1.4-0.8,1.5,0.1c0.7,5.1,1.7,14.1,1.8,20c0,3.2,0.3,8.2,0,13.1c-0.5,8-4.9,41-4.9,41l32.4-1.1c0,0,1.5-39.6,1.7-52.5
		l-1.8-38.9C355.8,277.2,326.5,279.5,296.2,276.8"/>
	<polygon class="st33" points="323.7,98.4 375.1,286.6 517.9,243.7 466.8,60.3 	"/>
	<g>
		<polygon class="st40" points="756,433.7 756,279.5 694.7,315.8 696.5,479.3 		"/>
	</g>
	<polygon class="st2" points="527.3,699.1 573.6,670.7 629.4,739.1 581,767.5 	"/>
	<path class="st2" d="M280.6,374c0,0-1.9,9.6-2.1,14.2h35.1c0,0,2.8-7.5-7.5-9.6c-10.3-2.1-7.4-5.1-7.4-5.1L280.6,374z"/>
	<g>
		<path class="st27" d="M298,379.8c0.3-0.5,0.7-1,1.1-1.5c0.5-0.4,1-0.7,1.5-1c0.3-0.2,0.1-0.7-0.2-0.6c-1.3,0.3-2.4,1.7-2.8,2.9
			C297.5,379.9,297.8,380,298,379.8L298,379.8z"/>
	</g>
	<g>
		<path class="st27" d="M300,380.9c0.5-0.5,0.9-1.1,1.4-1.5c0.6-0.5,1.2-0.8,1.9-1.1c0.5-0.2,0.1-0.8-0.3-0.8
			c-1.4,0.2-3.3,1.8-3.3,3.3C299.7,380.9,299.9,381,300,380.9L300,380.9z"/>
	</g>
	<path class="st34" d="M292.5,282.8c0,0,37,1.7,65.4-1.2c0,0-3.6-33.4-4.4-43.2c-0.8-9.7-7.2-31-15.6-32.6
		c-8.4-1.6-23.1-1.6-31.9,11.2C297.4,229.6,292.5,282.8,292.5,282.8z"/>
	<path class="st2" d="M987.9,589l62.1,1.6c0,0-5.1-49.1-17.3-64.5c0,0-15.3-17.2-31.1,0C991.6,537,987.9,589,987.9,589z"/>
	<polygon class="st20" points="548.5,685.2 561.4,706.2 567.3,681.6 	"/>
	<polygon class="st27" points="558.6,701.3 562.6,700.8 561.4,706.2 	"/>
	<g>
		<path class="st27" d="M278.5,390.2c3,0.4,6.2,0.3,9.2,0.3c3,0.1,5.9,0.1,8.9,0.1c5.5,0.1,11.1,0.1,16.6,0c1,0,1-1.6,0-1.6
			c-5.5,0.1-11.1,0.1-16.6,0.1c-3,0-5.9,0-8.9,0c-3,0-6.2-0.2-9.2,0.3C278.1,389.4,278.1,390.1,278.5,390.2L278.5,390.2z"/>
	</g>
	<path class="st2" d="M1060.3,673.2c0,0,2.6,10.4,3,15l-35,1.7c0,0-3.2-7.4,7.1-10c10.2-2.6,7.1-5.4,7.1-5.4L1060.3,673.2z"/>
	<g>
		<path class="st27" d="M1043.9,680.5c-0.4-1.2-1.7-2.5-2.9-2.8c-0.3-0.1-0.6,0.4-0.2,0.6c0.5,0.3,1.1,0.5,1.6,0.9
			c0.5,0.4,0.8,0.9,1.2,1.4C1043.6,680.8,1044,680.7,1043.9,680.5L1043.9,680.5z"/>
	</g>
	<g>
		<path class="st27" d="M1041.8,681.7c-0.1-1.6-2.1-2.9-3.5-3.1c-0.4-0.1-0.6,0.6-0.2,0.8c0.7,0.3,1.3,0.5,1.9,1
			c0.6,0.4,1,1,1.5,1.5C1041.6,681.9,1041.9,681.8,1041.8,681.7L1041.8,681.7z"/>
	</g>
	<g>
		<path class="st27" d="M1063.3,689.3c-3.1-0.3-6.4,0.1-9.5,0.2c-2.9,0.1-5.8,0.3-8.6,0.4c-5.5,0.3-10.9,0.5-16.4,0.7
			c-1,0-1,1.7,0,1.6c5.5-0.2,11.1-0.4,16.6-0.8c3-0.2,5.9-0.3,8.9-0.5c3-0.2,6.2-0.2,9.2-0.7C1063.9,690,1063.8,689.3,1063.3,689.3
			L1063.3,689.3z"/>
	</g>
	<path class="st2" d="M1018.4,674.5c0,0,2.4,9.5,2.8,14.1l-35,1.7c0,0-3.2-7.4,7.1-10c10.2-2.6,7.1-5.4,7.1-5.4L1018.4,674.5z"/>
	<g>
		<path class="st27" d="M1001.8,680.9c-0.4-1.2-1.7-2.5-2.9-2.8c-0.3-0.1-0.6,0.4-0.2,0.6c0.5,0.3,1.1,0.5,1.6,0.9
			c0.5,0.4,0.8,0.9,1.2,1.4C1001.5,681.3,1001.9,681.2,1001.8,680.9L1001.8,680.9z"/>
	</g>
	<g>
		<path class="st27" d="M999.7,682.1c-0.1-1.6-2.1-2.9-3.5-3.1c-0.4-0.1-0.6,0.6-0.2,0.8c0.7,0.3,1.3,0.5,1.9,1c0.6,0.4,1,1,1.5,1.5
			C999.5,682.4,999.7,682.3,999.7,682.1L999.7,682.1z"/>
	</g>
	<g>
		<path class="st27" d="M1021.2,689.7c-3.1-0.3-6.4,0.1-9.5,0.2c-2.9,0.1-5.8,0.3-8.6,0.4c-5.5,0.3-10.9,0.5-16.4,0.7
			c-1,0-1,1.7,0,1.6c5.5-0.2,11.1-0.4,16.6-0.8c3-0.2,5.9-0.3,8.9-0.5c3-0.2,6.2-0.2,9.2-0.7
			C1021.8,690.5,1021.6,689.8,1021.2,689.7L1021.2,689.7z"/>
	</g>
	<path class="st2" d="M331.5,369.4c0,0-1.9,9.6-2.1,14.2h35.1c0,0,2.8-7.5-7.5-9.6s-7.4-5.1-7.4-5.1L331.5,369.4z"/>
	<g>
		<path class="st27" d="M348.8,375.2c0.3-0.5,0.7-1,1.1-1.5c0.5-0.4,1-0.7,1.5-1c0.3-0.2,0.1-0.7-0.2-0.6c-1.3,0.3-2.4,1.7-2.8,2.9
			C348.3,375.3,348.7,375.5,348.8,375.2L348.8,375.2z"/>
	</g>
	<g>
		<path class="st27" d="M350.8,376.3c0.5-0.5,0.9-1.1,1.4-1.5c0.6-0.5,1.2-0.8,1.9-1.1c0.5-0.2,0.1-0.8-0.3-0.8
			c-1.4,0.2-3.3,1.8-3.3,3.3C350.5,376.3,350.7,376.4,350.8,376.3L350.8,376.3z"/>
	</g>
	<g>
		<path class="st27" d="M329.4,385.6c3,0.4,6.2,0.3,9.2,0.3c3,0.1,5.9,0.1,8.9,0.1c5.5,0.1,11.1,0.1,16.6,0c1,0,1-1.6,0-1.6
			c-5.5,0.1-11.1,0.1-16.6,0.1c-3,0-5.9,0-8.9,0c-3,0-6.2-0.2-9.2,0.3C328.9,384.9,328.9,385.6,329.4,385.6L329.4,385.6z"/>
	</g>
	<path class="st19" d="M337.3,209.9c0,0,0.2-4.4,3.7-5.4c3.6-1,7.6-4.7,7.4-12.9c-0.3-8.2,1.3-18.4-9.7-18.4s-15,6.8-14.5,21.3
		l-1.1,12.6C323.1,207.1,331.7,212.3,337.3,209.9z"/>
	<path class="st27" d="M328.2,189.5c0,0,0.7-10.9,3.9-10.5c3.2,0.4,14.3,4.2,16.9,0.6c1.2-1.7,3.3-6.2-2-7.8
		c-4.5-1.4-4-1.2-11.4-1.9c-7.4-0.7-14.7,2.1-14.7,8.4c0,6.3,3.3,16.2,3.3,16.2"/>
	<g>
		<path class="st27" d="M338.3,186.2c0,0-0.1-0.1-0.1-0.1c-0.8-0.6-1.9,0.8-1.1,1.4c0,0,0.1,0,0.1,0.1c0.6,0.5,1.7,0.2,1.7-0.7
			c0-0.9-1.1-1.2-1.7-0.7c0,0-0.1,0-0.1,0.1c-0.8,0.6,0.3,2,1.1,1.4c0,0,0.1-0.1,0.1-0.1C338.8,187.2,338.8,186.6,338.3,186.2
			L338.3,186.2z"/>
	</g>
	<g>
		<path class="st27" d="M345.5,187.9c1.3,0,1.3-2,0-2C344.2,185.9,344.2,187.9,345.5,187.9L345.5,187.9z"/>
	</g>
	<g>
		<path class="st27" d="M342.4,187.2c0.3,1.9,0.7,3.7,1.1,5.5c0.1-0.2,0.2-0.3,0.3-0.5c-0.5,0-0.9,0-1.4,0.1c-0.3,0.1-0.3,0.6,0,0.7
			c0.5,0.1,0.9,0,1.4,0c0.2,0,0.4-0.2,0.3-0.5c-0.5-1.8-0.9-3.6-1.4-5.4C342.7,186.9,342.4,187,342.4,187.2L342.4,187.2z"/>
	</g>
	<g>
		<path class="st27" d="M335.7,185c0.7,0,1.4-0.1,2.1,0c0.7,0,1.4,0.3,2.1,0.2c0.7,0,0.9-0.9,0.3-1.2c-1.3-0.8-3.5-0.6-4.8,0.1
			C335.1,184.3,335.3,185,335.7,185L335.7,185z"/>
	</g>
	<g>
		<path class="st27" d="M343.8,185.4c0.5-0.1,1-0.2,1.5-0.2c0.5,0,1,0.1,1.5,0.2c0.6,0,0.8-0.8,0.3-1.1c-1.1-0.6-2.7-0.4-3.7,0.2
			C342.9,184.7,343.3,185.5,343.8,185.4L343.8,185.4z"/>
	</g>
	<circle class="st19" cx="325.8" cy="191.8" r="4"/>
	<circle class="st41" cx="661.1" cy="166.8" r="4"/>
	<g>
		<path class="st4" d="M755.2,480.5c-0.3-0.8-1-1.5-1.5-2.1c-0.7-0.9-1.5-1.9-2.1-2.9c-1.1-1.7-2.3-3.7-2.4-5.7c0-0.5,0-0.9,0.5-1
			c0.5-0.1,0.9,0.4,1.2,0.7c0.8,0.9,1.4,1.9,2,3c1.1,2.1,1.9,4.3,2.2,6.6c0.1,1.1,1.8,1.1,1.7,0c-0.4-3-1.4-5.9-3-8.4
			c-1-1.5-3.4-5.2-5.5-2.9c-1.6,1.7,0,4.9,0.9,6.5c0.7,1.3,1.6,2.5,2.5,3.6c0.8,1,1.8,2.4,2.9,3.1
			C754.9,481.1,755.4,480.8,755.2,480.5L755.2,480.5z"/>
	</g>
	<g>
		<path class="st4" d="M750.5,470.2c0.2,3.2,1.4,6.2,3.2,8.8c0.2,0.3,0.4,0.4,0.7,0.3c3.4-0.7-2.8-8.5-3.8-9.6
			c-0.5-0.6-1.4,0-1.3,0.7c0.7,2.8,2.2,5.3,4.1,7.4c0.4,0.5,1.4,0.1,1.3-0.5c-0.4-3-1.8-5.5-3.9-7.6c-0.5-0.5-1.3-0.1-1.3,0.6
			c-0.2,2.7,1.6,5,3.8,6.4c0.6,0.4,1.3-0.3,1.2-0.9c-0.7-2.7-2.2-5.1-4.1-7.1c-0.4-0.5-1.5-0.1-1.4,0.6c0.2,1.4,0.8,2.6,1.9,3.4
			c0.8,0.6,1.9-0.4,1.1-1.1c-0.7-0.7-1.3-1.3-1.4-2.3c-0.5,0.2-0.9,0.4-1.4,0.6c1.7,1.8,3,3.9,3.7,6.4c0.4-0.3,0.8-0.6,1.2-0.9
			c-1.8-1.1-3.1-2.8-3-5c-0.4,0.2-0.9,0.4-1.3,0.6c1.8,1.9,3.1,4.1,3.5,6.7c0.4-0.2,0.9-0.5,1.3-0.7c-1.8-1.9-3.1-4.2-3.8-6.7
			c-0.4,0.2-0.8,0.5-1.3,0.7c1,1.2,2,2.4,2.8,3.8c0.3,0.4,1.8,3.5,1.7,3.5c0.2,0.1,0.4,0.1,0.6,0.2c-1.8-2.3-3-5.1-3.4-8
			C751.4,469.6,750.5,469.6,750.5,470.2L750.5,470.2z"/>
	</g>
	<g>
		<path class="st4" d="M756.2,478.5c-0.6-3-1.1-6.1-1.3-9.2c-0.1-1.4-0.1-2.9,0-4.3c0.1-1.2,0.4-2.1,1.5-2.7c-0.3,0-0.6-0.1-0.9-0.1
			c1.6,2,2.1,4.5,2,7c-0.1,2.7-0.5,5.5-1,8.2c-0.2,1,1.4,1.5,1.6,0.4c1-5.4,2.4-12.1-1.5-16.7c-0.2-0.3-0.6-0.3-0.9-0.1
			c-2.7,1.3-2.3,4.6-2.1,7.1c0.3,3.6,0.9,7.1,2.1,10.5C755.7,479.1,756.3,478.9,756.2,478.5L756.2,478.5z"/>
	</g>
	<g>
		<path class="st4" d="M756.9,475.7c0.1-4.1,0.2-8.1,0.4-12.2c-0.4,0-0.9,0-1.3,0c0.5,3.7,0.8,7.4,0.5,11.1c0.5-0.1,1.1-0.1,1.6-0.2
			c-0.5-3.6-0.8-7.3-0.9-10.9c0-0.9-1.5-1.2-1.7-0.2c-0.6,3.8-0.6,7.6,0.2,11.4c0.2,1,1.8,0.8,1.7-0.2c-0.2-3.5-0.4-7-0.6-10.5
			c-0.1-1.2-1.8-1.2-1.8,0c-0.2,4.3,0.1,8.5,0.7,12.7c0.2,1.2,2,0.7,1.8-0.5c-0.6-4-0.9-8.1-0.7-12.2c-0.6,0-1.2,0-1.8,0
			c0.2,3.5,0.5,7,0.7,10.5c0.6-0.1,1.2-0.2,1.7-0.2c-0.7-3.5-0.8-7-0.2-10.5c-0.6-0.1-1.1-0.2-1.7-0.2c0.1,3.8,0.4,7.6,1,11.4
			c0.2,0.9,1.5,0.6,1.6-0.2c0.2-3.7,0.1-7.6-0.8-11.3c-0.2-0.7-1.3-0.6-1.3,0.2c0.1,4.1,0.2,8.1,0.3,12.2
			C756.3,476.1,756.9,476.1,756.9,475.7L756.9,475.7z"/>
	</g>
	<g>
		<path class="st4" d="M757.9,479.6c0.7-3.8,1.7-7.7,4.3-10.7c0.1-0.1,0.4-0.5,0.5-0.6c0.3-0.1,0.3,0,0.3,0.2
			c0.2,0.4-0.1,1.2-0.2,1.6c-0.2,1-0.4,2-0.8,2.9c-0.4,1.1-0.8,2.1-1.3,3.2c-0.4,0.9-1.1,1.7-1.2,2.8c0,0.6,0.7,1,1.2,0.7
			c1.9-1.3,6.7-13.5,2.1-13.3c-1.2,0-1.9,1.2-2.5,2.1c-0.8,1.1-1.4,2.2-1.9,3.4c-1,2.4-1.3,5-1.3,7.6
			C757.2,480,757.8,480.1,757.9,479.6L757.9,479.6z"/>
	</g>
	<g>
		<path class="st4" d="M759.9,478.8c-0.2-2.5,0.3-5.2,1.8-7.3c-0.5-0.1-0.9-0.2-1.4-0.4c-0.2,2.4-0.8,4.6-1.8,6.7
			c0.6,0.2,1.1,0.3,1.7,0.5c-0.1-3,0.6-5.8,2-8.4c-0.6-0.2-1.2-0.3-1.8-0.5c0.2,2.2,0.1,4.3-0.5,6.4c0.6,0.1,1.3,0.2,1.9,0.3
			c-0.3-2.6,0.1-5.1,1.1-7.4c-0.6-0.2-1.2-0.3-1.9-0.5c0.1,2.5-0.4,4.9-1.3,7.3c0.6,0.2,1.3,0.4,1.9,0.5c0.4-2.5,1-4.9,1.8-7.3
			c-0.6-0.2-1.3-0.4-1.9-0.5c-0.4,2-0.8,3.9-1.3,5.9c-0.4,1.8-0.7,3.8-2.9,4c0.2,0.6,0.3,1.3,0.5,1.9c0.5-0.3,1.1-0.5,1.6-0.8
			c-0.3-0.6-0.7-1.2-1-1.8c-0.8,0.4-1.6,0.7-2.4,1.1c-1.1,0.5-0.3,2.1,0.8,1.9c0.6-0.1,1.3-0.3,1.9-0.4c-0.2-0.7-0.4-1.3-0.5-2
			c-1.1,0.4-2.1,0.7-3.2,1.1c-1.2,0.4-0.8,2.3,0.5,2c1.3-0.3,2.7-0.6,4-0.9c1.3-0.3,0.7-2.2-0.5-2c-1.3,0.3-2.7,0.6-4,0.8
			c0.2,0.7,0.4,1.3,0.5,2c1.1-0.4,2.1-0.7,3.2-1.1c1.2-0.4,0.8-2.2-0.5-2c-0.6,0.1-1.3,0.3-1.9,0.4c0.3,0.6,0.5,1.2,0.8,1.9
			c0.8-0.4,1.6-0.7,2.4-1.1c1.2-0.6,0.2-2.3-1-1.8c-0.5,0.3-1.1,0.5-1.6,0.8c-0.9,0.4-0.5,2,0.5,1.9c2.2-0.2,3.8-1.5,4.4-3.6
			c0.7-2.5,1.1-5.2,1.7-7.8c0.3-1.3-1.6-1.8-1.9-0.5c-0.8,2.4-1.4,4.8-1.8,7.3c-0.2,1.3,1.4,1.7,1.9,0.5c1-2.5,1.5-5.1,1.4-7.8
			c0-0.9-1.4-1.5-1.9-0.5c-1.2,2.7-1.7,5.5-1.4,8.4c0.1,1,1.6,1.4,1.9,0.3c0.6-2.3,0.8-4.6,0.5-6.9c-0.1-0.9-1.3-1.4-1.8-0.5
			c-1.6,2.9-2.5,6.1-2.2,9.4c0.1,0.8,1.3,1.4,1.7,0.5c1.1-2.4,1.8-5,1.7-7.6c0-0.9-1.1-0.9-1.4-0.2c-1.1,2.7-1.8,5.1-1.3,8
			C759.1,479.4,759.9,479.3,759.9,478.8L759.9,478.8z"/>
	</g>
	<g>
		<g>
			<path class="st4" d="M307.1,434.2c-0.2-0.6-0.7-1.1-1.1-1.6c-0.5-0.7-1.1-1.4-1.6-2.1c-0.8-1.2-1.7-2.7-1.8-4.2
				c0-0.3,0-0.7,0.4-0.7c0.4,0,0.7,0.3,0.9,0.5c0.6,0.7,1,1.4,1.5,2.2c0.8,1.5,1.4,3.2,1.6,4.9c0.1,0.8,1.3,0.8,1.2,0
				c-0.3-2.2-1-4.3-2.2-6.2c-0.7-1.1-2.5-3.8-4.1-2.1c-1.2,1.2,0,3.6,0.7,4.8c0.5,0.9,1.2,1.8,1.9,2.7c0.6,0.8,1.3,1.8,2.2,2.3
				C306.9,434.7,307.2,434.5,307.1,434.2L307.1,434.2z"/>
		</g>
		<g>
			<path class="st4" d="M303.7,426.6c0.2,2.4,1,4.6,2.4,6.5c0.1,0.2,0.3,0.3,0.6,0.2c2.5-0.5-2.1-6.3-2.8-7.1
				c-0.4-0.4-1.1,0-0.9,0.5c0.5,2.1,1.6,3.9,3.1,5.5c0.3,0.3,1,0.1,1-0.4c-0.3-2.2-1.3-4-2.9-5.6c-0.4-0.4-1-0.1-1,0.4
				c-0.1,2,1.2,3.7,2.8,4.7c0.4,0.3,1-0.2,0.9-0.7c-0.5-2-1.6-3.7-3-5.2c-0.3-0.4-1.1-0.1-1,0.4c0.1,1,0.6,1.9,1.4,2.5
				c0.6,0.5,1.4-0.3,0.8-0.8c-0.5-0.5-0.9-1-1-1.7c-0.3,0.1-0.7,0.3-1,0.4c1.3,1.4,2.2,2.9,2.7,4.7c0.3-0.2,0.6-0.4,0.9-0.7
				c-1.3-0.8-2.3-2.1-2.2-3.7c-0.3,0.1-0.7,0.3-1,0.4c1.4,1.4,2.3,3,2.6,4.9c0.3-0.2,0.6-0.4,0.9-0.6c-1.3-1.4-2.3-3.1-2.8-5
				c-0.3,0.2-0.6,0.4-0.9,0.5c0.8,0.9,1.5,1.8,2.1,2.8c0.2,0.3,1.3,2.6,1.3,2.6c0.2,0,0.3,0.1,0.5,0.1c-1.4-1.7-2.2-3.7-2.5-5.9
				C304.3,426.2,303.6,426.2,303.7,426.6L303.7,426.6z"/>
		</g>
		<g>
			<path class="st4" d="M307.9,432.8c-0.5-2.2-0.8-4.5-0.9-6.7c-0.1-1.1-0.1-2.1,0-3.2c0-0.9,0.3-1.6,1.1-2c-0.2,0-0.5-0.1-0.7-0.1
				c1.2,1.5,1.5,3.3,1.5,5.1c0,2-0.4,4.1-0.7,6c-0.1,0.8,1,1.1,1.2,0.3c0.8-4,1.7-8.9-1.1-12.3c-0.2-0.2-0.5-0.2-0.7-0.1
				c-2,1-1.7,3.4-1.6,5.2c0.2,2.7,0.7,5.2,1.5,7.8C307.5,433.2,307.9,433.1,307.9,432.8L307.9,432.8z"/>
		</g>
		<g>
			<path class="st4" d="M308.4,430.7c0.1-3,0.2-6,0.3-9c-0.3,0-0.6,0-0.9,0c0.3,2.7,0.6,5.4,0.3,8.2c0.4-0.1,0.8-0.1,1.2-0.2
				c-0.4-2.7-0.6-5.4-0.7-8c0-0.7-1.1-0.9-1.2-0.2c-0.5,2.8-0.4,5.6,0.1,8.4c0.1,0.7,1.3,0.6,1.3-0.2c-0.2-2.6-0.3-5.2-0.5-7.7
				c-0.1-0.9-1.3-0.9-1.3,0c-0.1,3.1,0.1,6.3,0.5,9.4c0.1,0.9,1.5,0.5,1.3-0.4c-0.5-3-0.6-6-0.5-9c-0.4,0-0.9,0-1.3,0
				c0.2,2.6,0.3,5.2,0.5,7.7c0.4-0.1,0.9-0.1,1.3-0.2c-0.5-2.5-0.6-5.2-0.2-7.7c-0.4-0.1-0.8-0.1-1.2-0.2c0.1,2.8,0.3,5.6,0.8,8.4
				c0.1,0.7,1.1,0.5,1.2-0.2c0.2-2.8,0.1-5.6-0.6-8.3c-0.1-0.5-0.9-0.4-0.9,0.1c0.1,3,0.2,6,0.2,9C307.9,431,308.4,431,308.4,430.7
				L308.4,430.7z"/>
		</g>
		<g>
			<path class="st4" d="M309.1,433.6c0.5-2.8,1.2-5.7,3.2-7.9c0.1-0.1,0.3-0.4,0.4-0.4c0.2-0.1,0.2,0,0.3,0.1
				c0.1,0.3-0.1,0.9-0.1,1.2c-0.1,0.7-0.3,1.4-0.6,2.2c-0.3,0.8-0.6,1.6-1,2.3c-0.3,0.7-0.8,1.3-0.9,2c0,0.4,0.5,0.8,0.9,0.5
				c1.4-1,5-9.9,1.6-9.8c-0.9,0-1.4,0.9-1.9,1.5c-0.6,0.8-1,1.6-1.4,2.5c-0.7,1.8-1,3.7-1,5.6C308.6,433.8,309.1,433.9,309.1,433.6
				L309.1,433.6z"/>
		</g>
		<g>
			<path class="st4" d="M310.6,433c-0.1-1.8,0.2-3.8,1.3-5.4c-0.3-0.1-0.7-0.2-1-0.3c-0.2,1.7-0.6,3.4-1.3,4.9
				c0.4,0.1,0.8,0.2,1.3,0.3c-0.1-2.2,0.4-4.3,1.5-6.2c-0.4-0.1-0.9-0.2-1.3-0.4c0.2,1.6,0,3.1-0.4,4.7c0.5,0.1,0.9,0.1,1.4,0.2
				c-0.2-1.9,0.1-3.7,0.8-5.5c-0.5-0.1-0.9-0.2-1.4-0.4c0.1,1.9-0.3,3.6-1,5.4c0.5,0.1,1,0.3,1.4,0.4c0.3-1.8,0.7-3.6,1.3-5.4
				c-0.5-0.1-1-0.3-1.4-0.4c-0.3,1.5-0.6,2.9-0.9,4.4c-0.3,1.3-0.5,2.8-2.1,2.9c0.1,0.5,0.3,0.9,0.4,1.4c0.4-0.2,0.8-0.4,1.2-0.6
				c-0.3-0.4-0.5-0.9-0.8-1.3c-0.6,0.3-1.2,0.5-1.7,0.8c-0.8,0.4-0.2,1.5,0.6,1.4c0.5-0.1,0.9-0.2,1.4-0.3c-0.1-0.5-0.3-1-0.4-1.5
				c-0.8,0.3-1.6,0.5-2.4,0.8c-0.9,0.3-0.6,1.7,0.4,1.5c1-0.2,2-0.4,2.9-0.6c0.9-0.2,0.5-1.6-0.4-1.4c-1,0.2-2,0.4-2.9,0.6
				c0.1,0.5,0.3,1,0.4,1.5c0.8-0.3,1.6-0.5,2.4-0.8c0.9-0.3,0.6-1.6-0.4-1.5c-0.5,0.1-0.9,0.2-1.4,0.3c0.2,0.5,0.4,0.9,0.6,1.4
				c0.6-0.3,1.2-0.6,1.7-0.8c0.9-0.4,0.1-1.7-0.8-1.3c-0.4,0.2-0.8,0.4-1.2,0.6c-0.7,0.3-0.3,1.5,0.4,1.4c1.6-0.1,2.8-1.1,3.3-2.6
				c0.5-1.9,0.8-3.8,1.2-5.7c0.2-0.9-1.1-1.3-1.4-0.4c-0.6,1.8-1,3.5-1.3,5.4c-0.2,1,1.1,1.3,1.4,0.4c0.8-1.8,1.1-3.8,1-5.8
				c0-0.7-1.1-1.1-1.4-0.4c-0.9,2-1.3,4.1-1,6.2c0.1,0.8,1.2,1,1.4,0.2c0.4-1.7,0.6-3.4,0.4-5.1c-0.1-0.6-1-1-1.3-0.4
				c-1.2,2.1-1.8,4.5-1.6,6.9c0,0.6,1,1,1.3,0.3c0.8-1.8,1.3-3.7,1.3-5.6c0-0.7-0.8-0.7-1.1-0.1c-0.8,2-1.3,3.8-1,5.9
				C310,433.5,310.6,433.4,310.6,433L310.6,433z"/>
		</g>
	</g>
	<polygon class="st30" points="532.8,550.1 548.5,685.2 567.3,681.4 550.2,547.7 	"/>
	
		<rect x="532" y="535.5" transform="matrix(0.9952 -9.824592e-02 9.824592e-02 0.9952 -50.665 55.7563)" class="st24" width="17.6" height="13.7"/>
	<g>
		<path class="st27" d="M552.6,683.8c-1.7-17-4.2-33.9-6.5-50.8c-2.4-17.8-4.8-35.5-7-53.3c-1.1-9.4-2.2-18.8-3.1-28.1
			c-0.1-1-1.7-1-1.6,0c1.7,17.1,3.8,34.2,6.1,51.3c2.4,17.7,4.9,35.4,7.3,53.1c1.3,9.3,2.5,18.7,3.9,28
			C551.7,684.5,552.7,684.4,552.6,683.8L552.6,683.8z"/>
	</g>
	<g>
		<path class="st27" d="M558.4,682.7c-1.7-17.1-4.2-34.1-6.4-51.1c-2.3-17.6-4.5-35.2-6.6-52.9c-1.1-9.4-2.1-18.8-3-28.2
			c-0.1-1-1.7-1-1.6,0c1.7,17.1,3.7,34.2,5.9,51.2c2.2,17.8,4.6,35.5,6.9,53.2c1.2,9.3,2.4,18.6,3.8,27.9
			C557.5,683.4,558.5,683.3,558.4,682.7L558.4,682.7z"/>
	</g>
	<g>
		<path class="st27" d="M564,682.7c-1.7-17.1-4.2-34.1-6.4-51.1c-2.3-17.6-4.5-35.2-6.6-52.9c-1.1-9.4-2.1-18.8-3-28.2
			c-0.1-1-1.7-1-1.6,0c1.7,17.1,3.7,34.2,5.9,51.2c2.2,17.8,4.6,35.5,6.9,53.2c1.2,9.3,2.4,18.6,3.8,27.9
			C563.1,683.4,564.1,683.3,564,682.7L564,682.7z"/>
	</g>
	<path class="st2" d="M685.8,638.3c0,0-35.4,1.3-51.8,0.2c-12.1-0.8-23.6,10.6-18.3,29.7c9.1,33,35.8,39.2,96.5,25
		C712.2,693.2,704.9,648.7,685.8,638.3z"/>
	<path class="st41" d="M636.5,166c0,0,0.5,10.5,6.3,12.9c5.8,2.4,5.7,7,5.7,7s6.8,1.7,13.3-1.8l-1.9-25.2c0,0-3.2-7.9-10.5-8.4
		C642,149.9,635.2,154.1,636.5,166z"/>
	<path class="st1" d="M905,208.3c0,0,0,8.8,5.2,10.9c5.1,2.1,4.3,5.5,4.3,5.5s5.9,1.6,11.7-1.1c0,0-1.2-14.8-1.7-20.7
		c-0.2-3-2.1-7.8-8.6-8.3S903.8,197.8,905,208.3z"/>
	<path class="st1" d="M993.9,492.2c0,0-1.3,19.5,7.2,22.4c5.9,2,4.2,8,4.2,8s10.8-2.6,16.6-3.7l-3.7-24.3c0,0-3.2-7.9-10.5-8.4
		C1000.3,485.6,992.6,480.3,993.9,492.2z"/>
	<g>
		<path class="st2" d="M913.6,466.7C913.6,466.7,913.6,466.7,913.6,466.7C913.6,466.7,913.6,466.7,913.6,466.7L913.6,466.7z"/>
	</g>
	<path class="st19" d="M634.9,633.1c0,0-12.6-18.6-28.2-1.9c0,0-6.4,29.6,11.6,29c1.3,0,3.2,5,3.2,5s9.6,1.1,14.2-5.2L634.9,633.1z"
		/>
	<g id="Capa_2_8_">
		<g id="Capa_1-2_7_">
			<g id="Capa_4_7_">
				<g id="Hoja_7_">
					<path class="st4" d="M407.6,118.7c-2.7-1.2-4.9-3.2-6.5-5.6l0.8-0.5c1.5,2.3,3.6,4.2,6.1,5.3L407.6,118.7z"/>
					<path id="_Trazado__7_" class="st4" d="M408,118.6l-0.5-0.5c0,0,0-0.1,0-0.1c4.4-3.8,4.8-10.5,1-14.8c-0.6-0.7-1.2-1.3-2-1.7
						l-1.9-1.3c0,0-0.1-0.1,0-0.1c0,0,0.1-0.1,0.1,0l0.7,0.2c0,0,0.1,0,0.1-0.1c0,0,0-0.1,0-0.1c-0.7-1-1.1-2-1.4-3.1
						c-0.2-0.7-0.2-1.4-0.2-2.1c0-0.1,0-0.1-0.1-0.1c0,0,0,0-0.1,0c-1.3,1.3-2.4,2.9-3.1,4.6c-1.2,2.8-1.5,5.8-0.8,8.8
						c0,0.1,0.1,0.3,0.1,0.5c0,0.1,0,0.1,0,0.2l0,0.1c0,0.1-0.1,0-0.1,0l-0.6,0c0,0,0,0,0,0l-0.1,0c0-0.1-0.1,0-0.1-0.1
						c0-0.2-0.1-0.3-0.1-0.5c-0.7-3.1-0.4-6.4,0.9-9.3c1-2.3,2.5-4.2,4.4-5.8l0.7-0.6c0,0,0.1,0,0.1,0c0,0,0,0.1,0,0.1l-0.2,0.9
						c-0.5,2.7,0.5,5.4,2.4,7.3l0.7,0.6c1.8,1.6,3.1,3.8,3.7,6.1c0.9,4.1-0.4,8.3-3.6,11C408.2,118.6,408.1,118.6,408,118.6z"/>
				</g>
				<g id="Brazos_7_">
					<g id="_Grupo__7_">
						<path id="_Trazado_2_7_" class="st4" d="M398.9,108.5L398.9,108.5c0.1,0,0.2,0,0.3,0.1c0.3,0,0.5,0.1,0.8,0.1
							c0.4,0,0.8,0,1.2-0.1c0.2,0,0.5-0.1,0.7-0.2c0.1,0,0.1,0,0.2-0.1c0.1,0,0.1,0,0.2-0.1l0.2-0.1c0.1,0,0.1-0.1,0.2-0.1
							c0.5-0.3,1-0.6,1.4-1.1c0.2-0.2,0.4-0.5,0.6-0.8c0.1-0.1,0.2-0.3,0.3-0.4c0.1-0.1,0.2-0.3,0.2-0.5c0.1-0.2,0.1-0.3,0.2-0.5
							c0-0.1,0-0.2,0.1-0.3c0,0,0-0.1,0-0.1l0-0.1c0-0.1,0.1-0.2,0.2-0.3c0.2-0.1,0.4,0,0.5,0.1c0.1,0.1,0,0,0,0.1l0,0l0,0
							c0.2,0.4,0.3,0.8,0.5,1.2c0,0.1,0.1,0.2,0.1,0.3l0,0.1l0,0.2c0,0.2,0.1,0.4,0.1,0.6c0,0.4,0,0.8,0,1.3c0,0.1,0,0.2-0.1,0.3
							l-0.1,0.3l0,0.1l0,0l0,0l0,0.2l0,0.2c0,0,0,0,0,0.1l0,0.1l-0.1,0.3c0,0.1-0.1,0.2-0.1,0.3c0,0,0,0.1-0.1,0.1l-0.1,0.1
							l-0.1,0.1c0,0-0.1,0.1-0.1,0.1c-0.2,0.3-0.5,0.7-0.8,1c-0.3,0.3-0.6,0.5-0.9,0.8c-0.1,0.1-0.2,0.1-0.3,0.2
							c0,0-0.1,0.1-0.1,0.1l-0.1,0.1c-0.1,0-0.2,0.1-0.3,0.1c-0.1,0-0.2,0.1-0.3,0.1c0,0-0.1,0-0.1,0.1c0,0-0.1,0-0.1,0
							c-0.1,0-0.2,0.1-0.3,0.1c-0.1,0-0.2,0-0.3,0.1l-0.2,0l-0.1,0l-0.3,0c0,0-0.1,0-0.1,0l-0.1,0c-0.2,0-0.4,0-0.5,0
							c-0.1,0-0.2,0-0.3,0c-0.1,0-0.2,0-0.2,0c-0.1,0-0.2,0-0.2,0c0,0-0.1,0-0.1,0c0,0-0.1,0-0.1,0c-0.6-0.1-1.1-0.3-1.6-0.6
							c-0.4-0.2-0.7-0.5-1-0.8c-0.1-0.1-0.2-0.2-0.3-0.3c-0.1-0.1-0.2-0.2-0.2-0.3c-0.1-0.2-0.2-0.2-0.2-0.2s0.1,0.1,0.2,0.2
							c0.2,0.2,0.4,0.3,0.6,0.5c0.3,0.2,0.7,0.4,1.1,0.6c0.5,0.2,1,0.3,1.5,0.4c0,0,0.1,0,0.1,0c0,0,0.1,0,0.1,0l0.2,0
							c0.1,0,0.1,0,0.2,0c0.1,0,0.1,0,0.2,0c0.2,0,0.3,0,0.5,0c0,0,0.1,0,0.1,0s0.1,0,0.1,0l0.4-0.1c0,0,0.1,0,0.1,0l0.2-0.1
							l0.2-0.1l0.1,0c0,0,0.1,0,0.1-0.1c0.1,0,0.2-0.1,0.2-0.1c0.1,0,0.1-0.1,0.2-0.1l0.1-0.1l0.1-0.1c0.1,0,0.1-0.1,0.2-0.1
							c0.1-0.1,0.3-0.2,0.4-0.3l0.1-0.1l0,0l0,0c0.1-0.1,0.1-0.1,0.2-0.2c0.1-0.1,0.1-0.1,0.2-0.2l0.1-0.1l0.1-0.1
							c0-0.1,0.1-0.1,0.2-0.2l0.1-0.2c0,0,0-0.1,0.1-0.1l0.1-0.1l0.1-0.1c0,0,0-0.1,0.1-0.1c0-0.1,0.1-0.2,0.1-0.2l0.1-0.3l0-0.1
							c0,0,0,0,0-0.1l0-0.1l0-0.1l0,0l0,0l0-0.1l0.1-0.3c0-0.1,0-0.2,0-0.3c0.1-0.7,0.1-1.5-0.1-2.2c-0.1-0.3-0.2-0.7-0.4-1l0,0l0,0
							c0,0,0-0.1,0,0c0.1,0.2,0.3,0.2,0.5,0.1c0.2-0.1,0.3-0.4,0.2-0.3l0,0.1c0,0,0,0.1,0,0.1c0,0.1-0.1,0.2-0.1,0.3
							c-0.1,0.2-0.1,0.4-0.2,0.6c-0.2,0.4-0.4,0.7-0.6,1c-0.2,0.3-0.5,0.6-0.7,0.8c-0.5,0.5-1.1,0.8-1.7,1.1c-0.1,0-0.1,0.1-0.2,0.1
							c-0.1,0-0.1,0-0.2,0.1c-0.1,0-0.1,0-0.2,0.1l-0.2,0c-0.3,0.1-0.5,0.1-0.8,0.1c-0.4,0-0.9,0-1.3-0.1c-0.3-0.1-0.5-0.1-0.8-0.2
							C399,108.6,399,108.6,398.9,108.5C398.9,108.6,398.9,108.5,398.9,108.5z"/>
					</g>
				</g>
				<path class="st4" d="M398.7,105.2c-1-0.5-2-1.4-2.6-2.6c-0.6-1.2-0.8-2.5-0.5-3.5c0.3-1.1,1.5-3,5.8-2.5l-0.1,0.9
					c-2.7-0.3-4.4,0.3-4.8,1.8c-0.5,1.7,0.8,4.2,2.6,5.1L398.7,105.2z"/>
				<g id="Cuerpo_7_">
					<path class="st4" d="M394.8,115.1c0-0.1,0-0.2-0.1-0.3c-0.4-1.4-1-3.8,0.6-6.8c0-0.1,0.1-0.2,0.1-0.2c0.1-0.1,0.1-0.2,0.2-0.3
						c1.4-2.7,1.4-3.1,1.4-3.5c0-0.1,0-0.3,0-0.4l0.9,0.1c0,0.1,0,0.2,0,0.3c0,0.7,0,1.2-1.5,4l0,0c-0.1,0.1-0.1,0.2-0.2,0.3
						c0,0.1-0.1,0.2-0.1,0.2c-1.4,2.7-0.9,4.8-0.5,6.2c0,0.1,0,0.2,0.1,0.3L394.8,115.1z"/>
					<path class="st4" d="M404.6,120.3c-4.6,1-9.1-1.9-10.2-6.5c-0.4-1.6-0.2-3.3,0.4-4.9l0.8,0.3c-0.6,1.5-0.7,3-0.4,4.4
						c0.9,4.1,5,6.7,9.1,5.8c1-0.2,1.9-0.6,2.8-1.2c0.2-0.1,0.3-0.3,0.5-0.4l0.6,0.7c-0.2,0.1-0.4,0.3-0.5,0.4
						C406.7,119.6,405.7,120.1,404.6,120.3z"/>
				</g>
			</g>
		</g>
	</g>
	<g>
		<path class="st27" d="M592,745.9c-1.8-3.1-2.4-6.6-3.9-9.8c-1.5-3.2-4-5.4-6.9-7.4c-3-2.1-5.8-4.3-8.3-7c-1.3-1.4-2.4-2.8-3.5-4.3
			c-1-1.4-1.9-3-3-4.4c-0.3-0.3-0.9,0-0.7,0.4c1,3.2,3.5,6.1,5.7,8.5c2.4,2.7,5.1,4.9,8,7c3,2.1,5.9,4.2,7.5,7.6
			c1.6,3.2,2.3,6.8,4.3,9.8C591.5,746.8,592.3,746.4,592,745.9L592,745.9z"/>
	</g>
	<g>
		<path class="st27" d="M362,148.6C362,148.6,362,148.6,362,148.6C362,148.6,362,148.6,362,148.6L362,148.6z"/>
	</g>
	<g>
		<path class="st27" d="M358.1,150c27.5-7.9,54.9-16.1,82.2-24.4c7.7-2.3,15.4-4.7,23.1-7c0.8-0.2,0.5-1.5-0.3-1.3
			c-27.4,8.2-54.8,16.4-82.1,24.9c-7.7,2.4-15.4,4.8-23.1,7.2C357.6,149.5,357.7,150.1,358.1,150L358.1,150z"/>
	</g>
	<g>
		<path class="st27" d="M361.4,166.5c27.5-7.9,54.9-16.1,82.2-24.4c7.7-2.3,15.4-4.7,23.1-7c0.8-0.2,0.5-1.5-0.3-1.3
			c-27.4,8.2-54.8,16.4-82.1,24.9c-7.7,2.4-15.4,4.8-23.1,7.2C360.8,166,361,166.6,361.4,166.5L361.4,166.5z"/>
	</g>
	<g>
		<path class="st27" d="M367,183c27.5-7.9,54.9-16.1,82.2-24.4c7.7-2.3,15.4-4.7,23.1-7c0.8-0.2,0.5-1.5-0.3-1.3
			c-27.4,8.2-54.8,16.4-82.1,24.9c-7.7,2.4-15.4,4.8-23.1,7.2C366.4,182.5,366.6,183.1,367,183L367,183z"/>
	</g>
	<g>
		<path class="st27" d="M372.3,198.9c27.5-7.9,54.9-16.1,82.2-24.4c7.7-2.3,15.4-4.7,23.1-7c0.8-0.2,0.5-1.5-0.3-1.3
			c-27.4,8.2-54.8,16.4-82.1,24.9c-7.7,2.4-15.4,4.8-23.1,7.2C371.8,198.5,371.9,199,372.3,198.9L372.3,198.9z"/>
	</g>
	<g>
		<path class="st27" d="M375.6,215.4c27.5-7.9,54.9-16.1,82.2-24.4c7.7-2.3,15.4-4.7,23.1-7c0.8-0.2,0.5-1.5-0.3-1.3
			c-27.4,8.2-54.8,16.4-82.1,24.9c-7.7,2.4-15.4,4.8-23.1,7.2C375,214.9,375.2,215.5,375.6,215.4L375.6,215.4z"/>
	</g>
	<g>
		<path class="st27" d="M381.2,231.9c27.5-7.9,54.9-16.1,82.2-24.4c7.7-2.3,15.4-4.7,23.1-7c0.8-0.2,0.5-1.5-0.3-1.3
			c-27.4,8.2-54.8,16.4-82.1,24.9c-7.7,2.4-15.4,4.8-23.1,7.2C380.6,231.4,380.8,232,381.2,231.9L381.2,231.9z"/>
	</g>
	<g>
		<path class="st27" d="M442,235.4c11.3-3.1,22.6-6.3,33.8-9.6c5.4-1.6,10.9-3.3,16.3-4.9c0.8-0.2,0.5-1.5-0.3-1.3
			c-11.2,3.4-22.5,6.6-33.7,10.1c-5.4,1.7-10.8,3.4-16.2,5.2C441.4,234.9,441.6,235.5,442,235.4L442,235.4z"/>
	</g>
	<g>
		<path class="st27" d="M814.1,433.7c0.8,1.6,3.4,0.2,2.8-1.4c-0.3-0.7-1.1-1-1.8-0.9c-0.8,0.1-1.4,0.6-1.5,1.4
			c-0.1,0.7,1,0.7,1.1,0c0-0.5,1-0.6,1.2-0.1c0.3,0.6-1,1-1.3,0.6C814.4,433.1,814,433.4,814.1,433.7L814.1,433.7z"/>
	</g>
	<g>
		<path class="st27" d="M878.5,655.6c0.8,1.6,3.4,0.2,2.8-1.4c-0.3-0.7-1.1-1-1.8-0.9c-0.8,0.1-1.4,0.6-1.5,1.4
			c-0.1,0.7,1,0.7,1.1,0c0-0.5,1-0.6,1.2-0.1c0.3,0.6-1,1-1.3,0.6C878.8,654.9,878.4,655.2,878.5,655.6L878.5,655.6z"/>
	</g>
	<g>
		<path class="st27" d="M823.3,420.5c-1.4,0.3-1.5,2.4-1.3,3.4c0.2,1.4,1.4,2.2,2.8,1.8c1.2-0.3,2.1-1.5,2-2.7
			c-0.2-1.5-1.4-2.6-2.8-2.9c-0.8-0.2-1.2,1.1-0.3,1.3c1.4,0.3,3,2.3,1.1,3.2c-0.8,0.4-1.4-0.1-1.6-0.9c-0.2-0.9,0-1.9,0.6-2.6
			C823.8,420.7,823.6,420.4,823.3,420.5L823.3,420.5z"/>
	</g>
	<g>
		<path class="st27" d="M94.8,610.6c-1.4,0.3-1.5,2.4-1.3,3.4c0.2,1.4,1.4,2.2,2.8,1.8c1.2-0.3,2.1-1.5,2-2.7
			c-0.2-1.5-1.4-2.6-2.8-2.9c-0.8-0.2-1.2,1.1-0.3,1.3c1.4,0.3,3,2.3,1.1,3.2c-0.8,0.4-1.4-0.1-1.6-0.9c-0.2-0.9,0-1.9,0.6-2.6
			C95.3,610.8,95.1,610.5,94.8,610.6L94.8,610.6z"/>
	</g>
	<g>
		<path class="st27" d="M877,661.5c-1.4,0.3-1.5,2.4-1.3,3.4c0.2,1.4,1.4,2.2,2.8,1.8c1.2-0.3,2.1-1.5,2-2.7
			c-0.2-1.5-1.4-2.6-2.8-2.9c-0.8-0.2-1.2,1.1-0.3,1.3c1.4,0.3,3,2.3,1.1,3.2c-0.8,0.4-1.4-0.1-1.6-0.9c-0.2-0.9,0-1.9,0.6-2.6
			C877.5,661.8,877.3,661.5,877,661.5L877,661.5z"/>
	</g>
	<path class="st1" d="M873.3,266c-6.1-2.1-16.6-8.7-16.6-8.7c-1.4-1-0.7-1.6-0.7-1.6c0.4-0.7,1.7-0.1,1.7-0.1s3,1.7,3.8,2.1
		c0.3,0.2,0.6,0.3,0.7,0.1s-0.5-0.6-0.5-0.6l-6.2-3.9c0,0-1.6-0.8-1.1-1.7c0.5-0.9,1.8-0.2,1.8-0.2l6.7,3.8c0,0,0.6,0.4,0.8,0.1
		c0.1-0.3-0.5-0.6-0.5-0.6s-6.5-4-7.2-4.6c-0.8-0.6-1.4-0.9-1-1.7c0.4-0.7,1.5-0.4,1.5-0.4l8.1,4.2c0,0,0.4,0.2,0.5,0
		c0.1-0.2-0.3-0.5-0.3-0.5l-5-3.1c0,0-1.6-0.9-1.1-1.8c0.5-0.9,1.9-0.2,1.9-0.2s7.3,4,11.2,4.9c1.3,0.3,0.1-1,0.1-1
		c-0.1,0-2.2-1.9-2.8-2.3c-0.9-0.7-1.3-1-0.9-1.7c0.5-0.9,1.9,0,1.9,0s6.7,4,10.1,5.1c0.3,0.1,1,0.2,1.3,0.3
		c11,2.5,18.4,5.4,30.5-10.7c0,0,11.9,6.1,18.8,14.1C931.1,255.1,912.5,282.5,873.3,266L873.3,266z"/>
	<path class="st41" d="M613.6,225.3c-6.1-2.1-16.6-8.7-16.6-8.7c-1.4-1-0.7-1.6-0.7-1.6c0.4-0.7,1.7-0.1,1.7-0.1s3,1.7,3.8,2.1
		c0.3,0.2,0.6,0.3,0.7,0.1s-0.5-0.6-0.5-0.6l-6.2-3.9c0,0-1.6-0.8-1.1-1.7c0.5-0.9,1.8-0.2,1.8-0.2l6.7,3.8c0,0,0.6,0.4,0.8,0.1
		c0.1-0.3-0.5-0.6-0.5-0.6s-6.5-4-7.2-4.6c-0.8-0.6-1.4-0.9-1-1.7c0.4-0.7,1.5-0.4,1.5-0.4l8.1,4.2c0,0,0.4,0.2,0.5,0
		c0.1-0.2-0.3-0.5-0.3-0.5l-5-3.1c0,0-1.6-0.9-1.1-1.8c0.5-0.9,1.9-0.2,1.9-0.2s7.3,4,11.2,4.9c1.3,0.3,0.1-1,0.1-1
		c-0.1,0-2.2-1.9-2.8-2.3c-0.9-0.7-1.3-1-0.9-1.7c0.5-0.9,1.9,0,1.9,0s6.7,4,10.1,5.1c0.3,0.1,1,0.2,1.3,0.3
		c11,2.5,18.4,5.4,30.5-10.7c0,0,11.9,6.1,18.8,14.1C671.3,214.5,652.8,241.9,613.6,225.3L613.6,225.3z"/>
	<path class="st19" d="M615.3,724.6c-6.4-0.1-18.5-3.1-18.5-3.1c-1.6-0.5-1.1-1.3-1.1-1.3c0.2-0.8,1.6-0.6,1.6-0.6s3.3,0.6,4.2,0.8
		c0.3,0.1,0.7,0.1,0.7-0.2c0-0.3-0.6-0.4-0.6-0.4l-7.1-1.8c0,0-1.8-0.3-1.6-1.3c0.2-1,1.7-0.8,1.7-0.8l7.6,1.5c0,0,0.7,0.2,0.8-0.2
		c0-0.3-0.7-0.4-0.7-0.4s-7.4-1.8-8.3-2.1s-1.6-0.5-1.5-1.3c0.1-0.8,1.3-0.9,1.3-0.9l9,1.4c0,0,0.4,0.1,0.5-0.2
		c0.1-0.3-0.4-0.4-0.4-0.4l-5.7-1.4c0,0-1.8-0.4-1.6-1.3c0.2-1,1.8-0.8,1.8-0.8s8.2,1.6,12.2,1.1c1.3-0.1-0.3-1-0.3-1
		c-0.1,0-2.7-1.1-3.4-1.3c-1.1-0.4-1.6-0.5-1.4-1.3c0.2-1,1.8-0.6,1.8-0.6s7.7,1.7,11.2,1.7c0.3,0,1-0.1,1.3-0.1
		c11.2-1.1,19.2-0.6,25.6-19.7c0,0,13.2,2.1,22.2,7.5C666.7,696.2,657.7,728.1,615.3,724.6L615.3,724.6z"/>
	<path class="st19" d="M376.1,244.9c5.5-3.3,14.6-11.8,14.6-11.8c1.2-1.3,0.3-1.7,0.3-1.7c-0.5-0.6-1.7,0.3-1.7,0.3
		s-2.6,2.2-3.3,2.8c-0.2,0.2-0.5,0.4-0.7,0.2c-0.2-0.2,0.3-0.7,0.3-0.7l5.3-5.1c0,0,1.4-1.1,0.7-1.9s-1.8,0.1-1.8,0.1l-5.8,5
		c0,0-0.5,0.5-0.7,0.2c-0.2-0.2,0.4-0.7,0.4-0.7s5.5-5.2,6.2-5.9c0.6-0.7,1.2-1.2,0.7-1.9c-0.5-0.7-1.6-0.1-1.6-0.1l-7.1,5.7
		c0,0-0.3,0.3-0.5,0.1c-0.2-0.2,0.2-0.5,0.2-0.5l4.2-4c0,0,1.4-1.2,0.7-1.9c-0.7-0.7-1.9,0.2-1.9,0.2s-6.3,5.4-10,7
		c-1.2,0.5-0.2-1-0.2-1c0.1-0.1,1.8-2.3,2.3-2.8c0.8-0.9,1.1-1.2,0.5-1.8c-0.7-0.8-1.8,0.4-1.8,0.4s-5.8,5.3-8.9,7
		c-0.3,0.2-0.9,0.4-1.2,0.6c-10.3,4.6-15.7,7.1-30.7-6.3c0,0-6.5,10.7-11.7,19.8C322.7,246.1,341,268.8,376.1,244.9L376.1,244.9z"/>
	<path class="st27" d="M1010.2,498c1.1,1.6,3.1,2.7,3.7,4.9c0.6,2.2,2.5,5.4,4.8,5.2c2.3-0.3,2.5-1.7,3.1-4.2c0.5-2.5-1.2-5.5,0-7.9
		c1.2-2.4,0.2-8.3-1.7-8.7s-4-0.7-5.3-3.1c-1.2-2.4-1.6-3.8-4.7-4.4c-3.2-0.6-6.3,3.5-9.1,2.6s-3.2-0.8-7.9,1.1
		c-1.4,0.6-6.1-1.4-6.1,4.2c0,4.2,2.1,4.5,3.7,4.4c1.6-0.1,2.4,1,4.5,0.3c1-0.4,1.6-1.7,3.2-1.1c1.6,0.5,3.4,0.4,4.4-0.4
		c1-0.8,4.8-0.4,5.5,1.2C1008.8,493.6,1008.3,495.4,1010.2,498z"/>
	<path class="st27" d="M686.3,669.1c-3.5,3.7-13.4,8.9-22.3-0.1c-1.6-1.6-2.9-4.6-7.7-4.5c-4.8,0-18.1,5.3-22.4-8.3
		c-1.3-4.2-8.8-2.3-12.1-13.8c-1.4-4.7-11.7-7.3-11.9-15.7c0,0,14.5-11.7,26.6,0.2c1.6,1.5,5.2,4.1,8.1,3.7c2.3-0.3,10.6-1.5,16,3.6
		c5.6,5.3,12,5,17.9,4.4c4.7-0.5,12.9,1.7,14.3,13.5C693.7,661.5,689.2,665.9,686.3,669.1z"/>
	<g>
		<path class="st2" d="M997.3,481.7c0,0,0.8-7.8,7.9-7.6c0,0,6.7,0,12.7,3.8c6,3.8,4.7,13.5,4.7,13.5L997.3,481.7z"/>
		<path class="st2" d="M1008.6,485.6c0,0-12.6-9.3-22-10.7c0,0-7.4-1.2-4.9,3c0,0,1.7,2.6,6.6,3.5L1008.6,485.6z"/>
	</g>
	<circle class="st1" cx="1014.2" cy="499.4" r="4.3"/>
	<g>
		<circle class="st27" cx="996.2" cy="497.2" r="0.9"/>
		<circle class="st27" cx="1003.6" cy="497.1" r="0.9"/>
		<g>
			<path class="st27" d="M1001.8,496c0.6-0.2,1.1-0.5,1.8-0.5c0.7,0,1.2,0.4,1.8,0.4c0.3,0,0.6-0.3,0.4-0.6
				c-0.6-1.6-3.9-1.1-4.4,0.4C1001.4,495.8,1001.6,496,1001.8,496L1001.8,496z"/>
		</g>
		<g>
			<path class="st27" d="M994.3,496.1c1.1-0.3,2.1-0.7,3.2-0.2c0.8,0.4,1.4-0.8,0.5-1.2c-1.2-0.5-3.3-0.4-4,0.9
				C993.8,495.9,994,496.1,994.3,496.1L994.3,496.1z"/>
		</g>
		<g>
			<path class="st27" d="M999.7,504.5c0.1,0.8,0.8,2,1.8,1.6c0.7-0.3,1.4-1.3,1-2.1c-0.2-0.3-0.7,0-0.5,0.3c0.2,0.4-0.3,1-0.6,1.2
				c-0.6,0.3-1.2-0.6-1.3-1.1C999.9,504.3,999.6,504.3,999.7,504.5L999.7,504.5z"/>
		</g>
		<g>
			<path class="st27" d="M998.6,496.1c0.2,1.1,0.3,2.3,0.2,3.5c-0.1,1-0.5,1.9-0.6,2.9c-0.1,1.1,1.1,0.9,1.9,0.7
				c0.3-0.1,0.2-0.6-0.1-0.6c0.1,0-0.9,0-0.8,0.1c-0.6-0.1-0.4-0.5-0.3-0.9c0.2-0.6,0.3-1.2,0.3-1.8c0.1-1.3,0-2.6-0.4-3.9
				C998.8,495.9,998.6,495.9,998.6,496.1L998.6,496.1z"/>
		</g>
	</g>
	<g>
		<circle class="st27" cx="607.6" cy="643.4" r="1"/>
		<circle class="st27" cx="615.8" cy="643.3" r="1"/>
		<g>
			<path class="st27" d="M613.8,642.1c0.7-0.2,1.2-0.5,2-0.6c0.7,0,1.3,0.4,2,0.4c0.3,0,0.6-0.3,0.5-0.6c-0.7-1.7-4.3-1.3-4.8,0.5
				C613.4,641.9,613.6,642.1,613.8,642.1L613.8,642.1z"/>
		</g>
		<g>
			<path class="st27" d="M605.8,642.2c1.2-0.3,2.3-0.8,3.5-0.2c0.9,0.4,1.5-0.9,0.5-1.3c-1.4-0.6-3.6-0.5-4.4,1
				C605.3,642,605.5,642.2,605.8,642.2L605.8,642.2z"/>
		</g>
		<g>
			<path class="st27" d="M611.5,651.4c0.1,0.9,0.7,1.9,1.7,1.8c1-0.1,1.4-1.3,1.4-2.2c0-0.4-0.7-0.4-0.6,0c0,0.5-0.1,1.4-0.7,1.6
				c-0.7,0.2-1.2-0.7-1.4-1.2C611.8,651.2,611.5,651.2,611.5,651.4L611.5,651.4z"/>
		</g>
		<g>
			<path class="st27" d="M610.3,642.2c0.2,1.1,0.3,2.2,0.2,3.4c-0.1,1.1-0.4,2.2-0.6,3.3c-0.3,1.4,0.9,1.3,2,1.1
				c0.4-0.1,0.3-0.6-0.1-0.6c-0.2,0-0.7,0.1-0.9,0.1c-0.8-0.2-0.4-0.7-0.3-1.1c0.2-0.6,0.3-1.3,0.3-2c0.1-1.4,0-2.8-0.4-4.2
				C610.5,642,610.3,642,610.3,642.2L610.3,642.2z"/>
		</g>
	</g>
	<g>
		<circle class="st27" cx="907.4" cy="206.4" r="0.8"/>
		<circle class="st27" cx="914.5" cy="206.2" r="0.8"/>
		<g>
			<path class="st27" d="M912.8,205.1c0.6-0.2,1-0.4,1.6-0.5c0.6,0,1.1,0.4,1.6,0.4c0.2,0,0.5-0.3,0.4-0.5c-0.5-1.4-3.6-1-3.9,0.4
				C912.5,205,912.7,205.2,912.8,205.1L912.8,205.1z"/>
		</g>
		<g>
			<path class="st27" d="M905.6,205.4c1-0.2,1.9-0.6,2.9-0.2c0.8,0.4,1.2-0.7,0.4-1.1c-1.1-0.5-3-0.4-3.6,0.8
				C905.2,205.3,905.4,205.5,905.6,205.4L905.6,205.4z"/>
		</g>
		<g>
			<path class="st27" d="M911,212.9c0.1,0.7,0.7,1.8,1.6,1.4c0.7-0.3,1.2-1.2,0.9-1.9c-0.2-0.3-0.6,0-0.5,0.3
				c0.2,0.3-0.3,0.9-0.6,1.1c-0.6,0.3-1.1-0.6-1.2-1C911.2,212.7,910.9,212.7,911,212.9L911,212.9z"/>
		</g>
		<g>
			<path class="st27" d="M910,205.3c0.1,1,0.2,2,0.2,3c0,0.6-0.2,1.2-0.3,1.8c-0.1,0.3-0.3,0.7-0.3,1c0,1,1,0.8,1.7,0.6
				c0.3-0.1,0.2-0.5-0.1-0.5c0.1,0-0.8,0-0.7,0.1c-0.5-0.1-0.3-0.3-0.3-0.7c0-0.6,0.3-1.2,0.3-1.7c0.1-1.2,0-2.4-0.3-3.6
				C910.2,205,910,205.1,910,205.3L910,205.3z"/>
		</g>
	</g>
	<g>
		<circle class="st27" cx="639.7" cy="163.1" r="0.9"/>
		<circle class="st27" cx="647.3" cy="163.1" r="0.9"/>
		<g>
			<path class="st27" d="M645.4,161.9c0.6-0.2,1.1-0.5,1.8-0.5c0.7,0,1.2,0.4,1.8,0.4c0.3,0,0.6-0.3,0.4-0.6c-0.6-1.6-4-1.2-4.4,0.4
				C645,161.8,645.2,162,645.4,161.9L645.4,161.9z"/>
		</g>
		<g>
			<path class="st27" d="M637.8,162c1.1-0.3,2.1-0.7,3.2-0.2c0.8,0.4,1.4-0.8,0.5-1.2c-1.3-0.5-3.4-0.4-4.1,0.9
				C637.4,161.8,637.6,162.1,637.8,162L637.8,162z"/>
		</g>
		<g>
			<path class="st27" d="M643.3,170.6c0.1,0.8,0.8,2,1.8,1.6c0.7-0.3,1.4-1.3,1-2.1c-0.2-0.3-0.7,0-0.5,0.3c0.2,0.4-0.3,1.1-0.7,1.2
				c-0.6,0.3-1.2-0.6-1.3-1.1C643.6,170.4,643.3,170.4,643.3,170.6L643.3,170.6z"/>
		</g>
		<g>
			<path class="st27" d="M642.2,162.1c0.2,1.2,0.3,2.3,0.2,3.5c-0.1,1-0.5,2-0.6,2.9c-0.1,1.1,1.2,0.9,1.9,0.7
				c0.3-0.1,0.2-0.6-0.1-0.6c0.1,0-0.9,0-0.8,0.1c-0.6-0.1-0.4-0.5-0.3-0.9c0.2-0.6,0.3-1.2,0.3-1.8c0.1-1.4,0-2.7-0.4-4
				C642.4,161.8,642.2,161.9,642.2,162.1L642.2,162.1z"/>
		</g>
	</g>
	<path class="st27" d="M605.5,640c0,0,4.9-5.8,6.7-9.2l1.3-6.6C613.6,624.3,602.6,627.5,605.5,640z"/>
	<g>
		<path class="st34" d="M599.1,749.1c0-3.7,3.9-5.7,7.1-5.8c4.3-0.1,7.6,3.2,10.3,6.2c3,3.3,6,6.5,9.7,9.1c3.7,2.6,7.9,4.7,12.2,6.2
			c4.9,1.6,10.1,2.4,15.2,2.3c1.3,0,1.3-2,0-2c-9.9,0.1-19.6-3-27.6-8.9c-3.8-2.9-6.6-6.6-10.1-9.8c-3-2.8-6.7-5.2-10.9-4.6
			c-3.7,0.5-7.5,3.3-7,7.4C598.1,749.7,599.1,749.8,599.1,749.1L599.1,749.1z"/>
	</g>
	<path class="st27" d="M928.3,208.7c0,0-1.2-10.8-5.6-13.2c-4.5-2.4-14.3-0.5-14.3-0.5s0.8,3.1,5.3,6.6
		C916.5,203.9,920.8,208.9,928.3,208.7z"/>
	<circle class="st1" cx="924.3" cy="209.7" r="3.3"/>
	<g>
		<path class="st2" d="M926.9,519.5c-1.3-3.5-3-6.9-5-10c-0.4-0.7-1.4-0.1-1.1,0.6c1.8,3.2,3.6,6.4,5.4,9.7
			C926.4,520.2,927.1,519.9,926.9,519.5L926.9,519.5z"/>
	</g>
	<g>
		<path class="st2" d="M930.3,517.2c-0.4-3.4-1.8-6.8-3.1-10c-0.4-0.9-1.6-0.4-1.2,0.5c1.3,3.1,2.2,6.4,3.5,9.6
			C929.6,517.7,930.3,517.7,930.3,517.2L930.3,517.2z"/>
	</g>
	<g>
		<path class="st2" d="M918.8,504.9c-0.8-1.4-1.7-2.8-2.6-4.2c-0.9-1.2-1.7-2.7-2.9-3.7c-0.5-0.4-1.2,0.1-0.9,0.7
			c0.7,1.3,1.8,2.4,2.7,3.5c1,1.3,2,2.6,3,4C918.4,505.6,919,505.3,918.8,504.9L918.8,504.9z"/>
	</g>
	<g>
		<path class="st2" d="M921.7,501.7c-1.9-3.1-3.7-6.3-5.9-9.2c-0.5-0.6-1.4,0.2-1,0.8c1.7,3.1,4,5.9,6.1,8.8
			C921.2,502.6,922,502.2,921.7,501.7L921.7,501.7z"/>
	</g>
	<g>
		<path class="st2" d="M924.3,498.7c-1.6-3.1-3.2-6.3-5.2-9.2c-0.4-0.5-1.1-0.1-0.8,0.5c1.5,3.2,3.5,6.1,5.4,9.1
			C923.9,499.5,924.5,499.2,924.3,498.7L924.3,498.7z"/>
	</g>
	<g>
		<path class="st2" d="M909.5,492.9c-1.8-2.4-3.8-4.8-6-6.8c-0.6-0.6-1.6,0.3-1,1c2,2.2,4.2,4.2,6.3,6.4
			C909.1,493.8,909.8,493.3,909.5,492.9L909.5,492.9z"/>
	</g>
	<g>
		<path class="st2" d="M912.5,488c-1-1.3-2-2.6-3.1-3.9c-1.1-1.3-2.2-2.8-3.4-4c-0.6-0.6-1.7,0.2-1.2,0.9c1,1.3,2.2,2.5,3.4,3.7
			c1.2,1.3,2.4,2.5,3.7,3.7C912.2,488.8,912.8,488.4,912.5,488L912.5,488z"/>
	</g>
	<g>
		<path class="st2" d="M917.7,486.5c-1.1-2.5-3.1-4.7-5.1-6.6c-0.6-0.6-1.5,0.3-0.9,0.9c2,1.9,3.6,4,5.5,6.1
			C917.4,487.1,917.8,486.8,917.7,486.5L917.7,486.5z"/>
	</g>
	<path class="st27" d="M634.1,156.5c0,0,3.5,1.9,7.4-0.2c3.1-1.7,6.5-3.2,7.5-0.9c1.1,2.3,0.9,3.2,3,3.2s3.3-1.8,3.9,0.5
		c0.5,2.3,1.2,7.7,1.2,7.7l2.6,0l1.3-4c0,0,0.4-0.7,1.6-2.8s3-6.3-0.5-8.2c-3.5-1.9-3.7,0.7-5.3-3.5c-1.6-4.2-1.1-5.1-4.4-5.1
		s-4,4-7.5,1.6c-3.5-2.5-8.2-1.8-10.2,0.2c-1.9,1.9-2.6,2.6-3,6S634.1,156.5,634.1,156.5z"/>
	<g>
		<line class="st48" x1="1101" y1="633.7" x2="1116.3" y2="542.6"/>
		<polyline class="st48" points="1120.1,649.5 1122.2,639 1122.3,638.5 1081.7,628.6 1079.7,640 		"/>
		<line class="st48" x1="1109.9" y1="646.6" x2="1112.1" y2="635.6"/>
		<line class="st48" x1="1099.2" y1="643.7" x2="1101.3" y2="633.2"/>
		<line class="st48" x1="1089.5" y1="641.4" x2="1091.5" y2="630.7"/>
	</g>
	<path class="st2" d="M648,200.7l17.7,22.9c0,0,15.5-13.9,10.3-27.4C670.7,182.8,655.9,194.4,648,200.7z"/>
	<g>
		<path class="st27" d="M608.6,160.2c0.7-0.9,0.8-2.1,1.1-3.2c0.2-1,0.4-2,0.6-3.1c0.3-1.5,0.6-3.1,1.1-4.6c1.1-3.7,3-7,4.9-10.3
			c0.6-1.1-1.1-2.2-1.8-1c-1.9,3.4-4,6.8-5.1,10.6c-0.5,1.5-0.8,3.1-1,4.7c-0.2,1-0.3,2-0.4,3.1c-0.2,1.2-0.5,2.5-0.1,3.7
			C607.9,160.3,608.4,160.6,608.6,160.2L608.6,160.2z"/>
	</g>
	<g>
		<path class="st27" d="M521,275.7c0.7-0.9,0.8-2.1,1.1-3.2c0.2-1,0.4-2,0.6-3.1c0.3-1.5,0.6-3.1,1.1-4.6c1.1-3.7,3-7,4.9-10.3
			c0.6-1.1-1.1-2.2-1.8-1c-1.9,3.4-4,6.8-5.1,10.6c-0.5,1.5-0.8,3.1-1,4.7c-0.2,1-0.3,2-0.4,3.1c-0.2,1.2-0.5,2.5-0.1,3.7
			C520.3,275.8,520.8,276.1,521,275.7L521,275.7z"/>
	</g>
	<g>
		<path class="st19" d="M977,371.1c0,0,3,9.4,3.7,13.9l-34.8,3.9c0,0-3.6-7.2,6.4-10.4c10-3.2,6.8-5.9,6.8-5.9L977,371.1z"/>
		<g>
			<path class="st27" d="M960.8,378.5c-0.5-1.1-1.8-2.3-3.1-2.5c-0.3,0-0.6,0.4-0.2,0.6c0.5,0.3,1.1,0.4,1.6,0.8
				c0.5,0.4,1,0.9,1.3,1.4C960.6,379,960.9,378.8,960.8,378.5L960.8,378.5z"/>
		</g>
		<g>
			<path class="st27" d="M958.8,379.8c-0.2-1.5-2.3-2.8-3.7-2.9c-0.5,0-0.5,0.7-0.1,0.8c0.7,0.3,1.4,0.5,2,0.9
				c0.6,0.4,1,0.9,1.5,1.4C958.7,380.2,958.8,380,958.8,379.8L958.8,379.8z"/>
		</g>
		<g>
			<path class="st27" d="M980.8,386.1c-3.1-0.1-6.3,0.5-9.4,0.8c-2.9,0.3-5.7,0.6-8.6,1c-5.4,0.6-10.9,1.2-16.3,1.7
				c-1,0.1-1,1.7,0,1.6c5.5-0.5,11-1.1,16.5-1.8c2.9-0.4,5.9-0.7,8.8-1.1c3-0.4,6.2-0.5,9.1-1.3
				C981.4,386.8,981.2,386.1,980.8,386.1L980.8,386.1z"/>
		</g>
	</g>
	<g>
		<polygon class="st30" points="542.6,290.7 656.3,295.3 666,354.6 553.5,353.5 		"/>
		<path class="st40" d="M656.3,295.3l-29.6-35c0,0-58,3.3-84,30.4L656.3,295.3z"/>
		<circle class="st32" cx="642.5" cy="316.9" r="7.8"/>
		<circle class="st32" cx="566.6" cy="310.7" r="10.4"/>
		<circle class="st32" cx="629.8" cy="339.8" r="5.8"/>
		<g>
			<path class="st27" d="M607.8,353.7c2.1,0.4,4.3,0.3,6.5,0.4c2.3,0.1,4.6,0.2,6.9,0.2c4.6,0.1,9.1,0.2,13.7,0.3
				c9.2,0.2,18.3,0.2,27.5,0.2c0.6,0,0.6-1,0-1c-9.1-0.1-18.2-0.2-27.2-0.3c-4.5-0.1-9-0.2-13.5-0.3c-2.3-0.1-4.6-0.1-6.9-0.1
				c-2.3,0-4.6-0.2-6.9,0C607.6,353.2,607.5,353.6,607.8,353.7L607.8,353.7z"/>
		</g>
	</g>
	<g>
		<path class="st27" d="M643.5,689.2c1.9,0.7,4,1.1,6,1.6c2,0.5,4,1.1,6,1.7c4,1.2,7.9,2.6,11.8,3.9c0.8,0.3,1.1-1,0.3-1.3
			c-3.9-1.5-8-2.7-12-3.8c-2-0.6-4-1.1-6-1.6c-1.9-0.5-4-1.1-6-1.3C643.1,688.4,643.1,689.1,643.5,689.2L643.5,689.2z"/>
	</g>
	<g>
		<path class="st27" d="M644.4,685.1c0.8-4.3,1.7-8.5,3.3-12.6c0.2-0.6-0.7-0.8-0.9-0.2c-1.6,4-2.9,8.4-3.1,12.7
			C643.7,685.4,644.3,685.5,644.4,685.1L644.4,685.1z"/>
	</g>
	<path class="st19" d="M541.1,646.4c0,0,1.9,2.7,5.1,3.5c0,0,2.7,1,3.3-0.9c0,0,0.1-1.5-2.1-2.1s-3.9-2.4-4.6-3.2
		C542.2,642.8,539.8,644,541.1,646.4z"/>
	<path class="st19" d="M540.8,643.1c0,0,1.9,2.7,5.1,3.5c0,0,2.7,1,3.3-0.9c0,0,0.1-1.5-2.1-2.1s-3.9-2.4-4.6-3.2
		C541.9,639.5,539.6,640.7,540.8,643.1z"/>
	<path class="st19" d="M540.8,639.9c0,0,1.9,2.7,5.1,3.5c0,0,2.7,1,3.3-0.9c0,0,0.1-1.5-2.1-2.1c-2.1-0.5-3.9-2.4-4.6-3.2
		C541.9,636.4,539.5,637.6,540.8,639.9z"/>
	<path class="st19" d="M540.5,636.4c0,0,1.9,2.7,5.1,3.5c0,0,2.7,1,3.3-0.9c0,0,0.1-1.5-2.1-2.1c-2.1-0.5-3.9-2.4-4.6-3.2
		C541.6,632.9,539.3,634.1,540.5,636.4z"/>
	<path class="st19" d="M564.2,639.3c-0.4,0.1-4.4-0.4-7-2.7s-4.3-2.6-5.6-2.9c-0.7-0.2-1.8-2.1,1.8-2.4s11.1-0.9,11.1-0.9"/>
	<path class="st2" d="M321.2,248.3l14.8-24.1c0,0-10.9-9-14.8-11.7c-3.5-2.5-10.3-3.4-15.8,6.3C298.6,230.9,311.2,240.4,321.2,248.3
		z"/>
	<g>
		<path class="st33" d="M272.2,596.8c0.4-0.4,0.6-0.9,0.6-1.5L272,435.9c0-1-0.8-1.8-1.7-1.9l-118.6-7.7c-0.8-0.1-1.5,0.5-1.6,1.2
			c0,0.1,0,0.3,0,0.4l0.7,79.4l31.4,2c-0.3-2.6,0.5-4.8,0.5-4.8c-4.5-2.6-5-9.9-4.6-12.9c1.2-8,7.7-9.1,7.7-9.1
			c0.3-6,5.2-7.9,8.1-8.5c1.4-0.3,2.7-0.4,3.8-0.3c5.5,0.4,9,3.9,9,3.9c2.8-5.9,10.8-5.5,11.6-5.4c0,0,0.1,0,0.1,0
			c0.1,0,0.1,0,0.2,0c11.3,0.7,11.8,7.8,11.8,7.8c0.6-0.1,1.2-0.1,1.8-0.1c6.3,0.4,9.2,7.7,9.2,7.7c3.2,8.8-4,13.2-4,13.2
			c3.4,5.3,1.9,9.8,0.6,12.1l27.2,65.2l0.7,25.4L272.2,596.8z M173,455.4c-4-0.3-7.3-3.8-7.3-8c0-4.1,3.2-7.3,7.2-7
			c4,0.3,7.3,3.8,7.3,8C180.3,452.5,177.1,455.6,173,455.4z"/>
		<polygon class="st33" points="143.8,432.5 150.7,426.7 151.6,432.5 		"/>
		<path class="st0" d="M272.2,596.8c0.4-0.4,0.6-0.9,0.6-1.5L272,435.9c0-0.5-0.3-0.9-0.5-1.2l-8.1,6.1c-0.8-0.1-117.4-3.8-117.6-3
			c0,0.1,5.3-0.1,5.3,0l-0.3,69.6l31.4,2c-0.3-2.6,0.5-4.8,0.5-4.8c-4.5-2.6-5-9.9-4.6-12.9c1.2-8,7.7-9.1,7.7-9.1
			c0.3-6,5.2-7.9,8.1-8.5c1.4-0.3,2.7-0.4,3.8-0.3c5.5,0.4,9,3.9,9,3.9c2.8-5.9,10.8-5.5,11.6-5.4c0,0,0.1,0,0.1,0
			c0.1,0,0.1,0,0.2,0c11.3,0.7,11.8,7.8,11.8,7.8c0.6-0.1,1.2-0.1,1.8-0.1c6.3,0.4,9.2,7.7,9.2,7.7c3.2,8.8-4,13.2-4,13.2
			c3.4,5.3,1.9,9.8,0.6,12.1l27.2,65.2l0.7,25.4L272.2,596.8z M173,455.4c-4-0.3-7.3-3.8-7.3-8c0-4.1,3.2-7.3,7.2-7
			c4,0.3,7.3,3.8,7.3,8C180.3,452.5,177.1,455.6,173,455.4z"/>
		<g>
			<g class="st43">
				<defs>
					<polygon id="SVGID_10_" class="st43" points="144.6,596.1 143.2,432 265.1,439.9 266.6,604.1 					"/>
				</defs>
				<clipPath id="SVGID_3_">
					<use xlink:href="#SVGID_10_"  style="overflow:visible;"/>
				</clipPath>
				<g style="clip-path:url(#SVGID_3_);">
					<path class="st33" d="M152,586c-1-0.1-1.9-1-1.9-2.1l-0.1-14.7c0-1.1,0.8-1.9,1.9-1.8l107,7c1,0.1,1.9,1,1.9,2.1l0.1,14.7
						c0,1.1-0.8,1.9-1.9,1.8L152,586 M143.3,433.3c-0.1,0.2-0.1,0.4-0.1,0.6l1.5,160.4c0,1,0.8,1.9,1.8,2l118.3,7.7
						c1,0.1,1.8-0.7,1.8-1.8l-0.4-42.4l-121.9-8l-1.1-118.1C143.2,433.6,143.2,433.5,143.3,433.3"/>
					<path class="st34" d="M243.4,547.9C243.4,547.9,243.4,547.9,243.4,547.9C243.4,547.9,243.4,547.9,243.4,547.9
						C243.4,547.9,243.4,547.9,243.4,547.9 M241.8,544.7C241.7,544.7,241.7,544.7,241.8,544.7c-0.1,0-0.1,0.2,0,0.5c0,0,0,0,0,0
						C241.7,544.9,241.7,544.8,241.8,544.7C241.8,544.7,241.8,544.7,241.8,544.7 M158.9,538.3C158.8,538.3,158.8,538.3,158.9,538.3
						c-0.1,0.1-0.1,0.2-0.1,0.3C158.8,538.5,158.8,538.4,158.9,538.3 M162.4,536.9c-0.1,0.1-0.2,0.2-0.3,0.3
						c-0.3,0.4-0.6,0.7-0.9,1.1c0.1-0.1,0.2-0.2,0.2-0.3C161.8,537.7,162.1,537.3,162.4,536.9 M245.9,541.3
						C245.9,541.3,245.9,541.3,245.9,541.3c-0.1,0.1,0,0.2,0,0.2C245.9,541.4,245.9,541.3,245.9,541.3 M157.9,533.1c0,0.5,0,1,0,1.4
						c0-0.3,0-0.7,0-1C157.9,533.4,157.9,533.2,157.9,533.1 M153.4,532.4C153.4,532.4,153.4,532.4,153.4,532.4
						c-0.1,0.1-0.2,0.2-0.2,0.3c0,0,0.1-0.1,0.1-0.1C153.4,532.5,153.4,532.4,153.4,532.4 M158.8,529c-0.1,0-0.1,0-0.2,0
						c0,0,0,0,0,0c0.2,0,0.5,0.2,0.6,0.5c0,0,0.1,0.1,0.1,0.2c0.2,0.4,0.3,0.8,0.3,1.2c0,0.1,0,0.1,0,0.2c0-0.1,0-0.1,0-0.2
						c0-0.5,0-1.1-0.2-1.5C159.2,529.2,159,529,158.8,529 M243.6,545.3c0-0.8,0.1-1.7,0.3-2.5c0.2-0.9,0.4-1.9,0.8-2.7
						c0.2-0.5,0.5-0.9,1-0.9c0,0,0.1,0,0.1,0c0.7,0.1,1,0.9,1,1.5c0,0.9-0.2,1.9-0.4,2.7c-0.2,1-0.5,2-0.8,2.9
						c-0.3,0.8-0.5,1.9-1.1,2.5c-0.1,0.1-0.2,0.1-0.3,0.1c-0.2,0-0.4-0.1-0.4-0.3c-0.1,0-0.1,0-0.2-0.1c0,0-0.1,0.1-0.2,0.1
						c0,0-0.1,0-0.1,0c-0.9-0.6-1.6-1.5-2.1-2.5c-0.3-0.7-0.8-2,0.2-2.2c0.1,0,0.2,0,0.3,0C242.4,543.8,243.2,544.7,243.6,545.3
						C243.6,545.3,243.6,545.3,243.6,545.3 M156.8,534.9c0-0.2,0-0.4,0-0.6c-0.1-1,0-2,0-3c0.1-0.8,0.1-1.6,0.4-2.4
						c0.3-0.8,1-1.1,1.6-1.1c0.6,0,1.2,0.4,1.6,1.1c0.4,0.8,0.4,1.8,0.4,2.7c0,1-0.1,2.1-0.2,3.1c-0.1,1.2-0.3,2.3-0.5,3.4
						c0.4-0.5,0.7-1.1,1.1-1.6c0.4-0.5,1.5-2,2.4-1.9c0.2,0,0.4,0.1,0.6,0.3c0.6,0.6,0,1.3-0.3,1.8c-0.4,0.6-0.9,1.2-1.3,1.8
						c-1,1.2-2.1,2.2-3.3,3c-0.1,0.1-0.2,0.1-0.3,0.1c-0.3,0-0.6-0.4-0.6-0.7c0,0-0.1-0.1-0.1-0.1c0-0.1-0.1-0.2-0.1-0.3
						c-0.1,0.2-0.3,0.3-0.4,0.3c-0.1,0-0.2-0.1-0.3-0.2c0,0,0,0,0,0c0,0-0.1,0-0.1,0c0,0-0.1,0-0.1-0.1c-1.4-1.4-2.6-3-3.5-4.7
						c-0.4-0.8-0.9-1.8-1.1-2.7c-0.1-0.6-0.1-1.3,0.4-1.6c0.2-0.1,0.3-0.1,0.5-0.1c0.5,0,1,0.5,1.4,0.9
						C155.6,533.2,156.2,534,156.8,534.9C156.8,534.9,156.8,534.9,156.8,534.9 M186.3,520c-0.6,0-2,2-2.1,1.4
						c-0.3-1.3-0.1,9-0.4,7.7c-0.3-1.3-0.5-2.6-0.7-3.8c-0.1-0.8-0.3-1.6-0.4-2.4c-1-0.3-1.9-0.6-2.6-1c-3.4-1.8-4.6-4.4-4.9-6.7
						l-31.4-2l-0.7-79.4 M184.6,522.7c0.1,1.2,1.9-5.4,2-4.2c0.1,1.3-3.1,1.4-2.9,2.7 M190.4,532.9L190.4,532.9
						c0.1-1.2,0.2-2.5,0.3-3.7c0.1-1.2,0.1-2.5,0.2-3.7c0-1,0-2,0-3 M211.3,534.5c-0.3-1.3-0.6-2.5-0.8-3.8
						c-0.3-1.3-0.5-2.6-0.7-3.8c-0.1-0.4-0.1-0.8-0.2-1.2c-2.4,0.7-4.6,0.6-4.6,0.6c-0.1,0-0.1,0-0.2,0c-6.3-0.4-8.9-3.5-10-5.4
						c0,0.5-0.6-2.1-0.7-1.6 M217.3,530.7c0.1-1.2,0.1-2.5,0.2-3.7c0-1.2,0-2.5,0-3.7c0-0.5,0-0.9,0-1.4c-1.4-0.6-2.2-1.3-2.2-1.3
						c-0.5,1.3-1.2,2.4-2.1,3.1 M217,534.4 M143.2,433.7l1.1,118.1l121.9,8l-0.4-38.7l-34.7-2.3c-0.6,1.1-1.2,1.8-1.2,1.8
						c-2.2,2.3-4.8,2.9-7.2,2.7c-0.5,0-0.9-0.1-1.3-0.2c0,0.2,0,0.4,0,0.5"/>
					<path class="st4" d="M163,460c-4-0.3-7.3-3.8-7.3-8c0-4.1,3.2-7.3,7.2-7c4,0.3,7.3,3.8,7.3,8C170.2,457.1,167,460.2,163,460
						 M263.4,439.8l-118.6-7.7c-0.8-0.1-1.5,0.5-1.6,1.2c0,0.1,0,0.3,0,0.4l0.7,79.4l31.4,2c-0.3-2.6,0.5-4.8,0.5-4.8
						c-4.5-2.6-5-9.9-4.6-12.9c1.2-8,7.7-9.1,7.7-9.1c0.3-6,5.2-7.9,8.1-8.5c1.4-0.3,2.7-0.4,3.8-0.3c5.5,0.4,9,3.9,9,3.9
						c2.8-5.9,10.8-5.5,11.6-5.4c0,0,0.1,0,0.1,0c0.1,0,0.1,0,0.2,0c11.3,0.7,11.8,7.8,11.8,7.8c0.6-0.1,1.2-0.1,1.8-0.1
						c6.3,0.4,9.2,7.7,9.2,7.7c3.2,8.8-4,13.2-4,13.2c3.4,5.3,1.9,9.8,0.6,12.1l34.7,2.3l-0.7-79.4
						C265.1,440.7,264.4,439.9,263.4,439.8"/>
					<path class="st4" d="M258.9,574.3l-107-7c-1-0.1-1.9,0.8-1.9,1.8l0.1,14.7c0,1.1,0.9,2,1.9,2.1l107,7c1,0.1,1.9-0.8,1.9-1.8
						l-0.1-14.7C260.8,575.3,259.9,574.4,258.9,574.3"/>
					<path class="st9" d="M182.7,522.6c0.1,0.8,0.2,1.7,0.3,2.5c0.2,1.3,0.3,2.7,0.5,4c0.2,1.3,0.4,2.7,0.6,4
						c0.1,0.6,0.5,1.1,0.9,1.2c0.1,0,0.1,0,0.2,0c0.5-0.1,0.7-0.8,0.7-1.5l0,0c-0.1-1.3-0.2-2.6-0.3-3.9c-0.1-1.3-0.1-2.6-0.2-3.9
						c0-0.6,0-1.3-0.1-1.9c-0.2,0-0.5,0-0.7,0C183.9,522.9,183.3,522.8,182.7,522.6"/>
					<path class="st9" d="M193.6,518.5c-0.1,0.8-0.5,5.7-0.6,6.6c-0.2,1.3-0.3,2.7-0.5,4c-0.2,1.3-0.4,2.7-0.6,4
						c-0.1,0.6-0.5,1.1-0.9,1.2c-0.1,0-0.1,0-0.2,0c-0.5-0.1-0.7-0.8-0.7-1.5l0,0c0.1-1.3,0.2-2.6,0.3-3.9c0.1-1.3,0.1-2.6,0.2-3.9
						c0-0.6,0.2-3,0.2-3.7c0.2,0,0.6-1.7,0.9-1.7c0.7-0.1,1.3-0.2,1.9-0.4"/>
					<path class="st9" d="M211.6,522.6c0.1,0.8,0.2,1.7,0.3,2.5c0.2,1.3,0.3,2.7,0.5,4c0.2,1.3,0.4,2.7,0.6,4
						c0.1,0.6,0.5,1.1,0.9,1.2c0.1,0,0.1,0,0.2,0c0.5-0.1,0.7-0.8,0.7-1.5l0,0c-0.1-1.3-0.2-2.6-0.3-3.9c-0.1-1.3-0.1-2.6-0.2-3.9
						c0-0.6-0.1-2.7-0.1-3.3c-0.2,0-0.4,1.4-0.7,1.4C212.8,522.9,212.1,522.8,211.6,522.6"/>
					<path class="st9" d="M222.5,518.5c-0.1,0.8-0.5,5.7-0.6,6.6c-0.2,1.3-0.3,2.7-0.5,4c-0.2,1.3-0.4,2.7-0.6,4
						c-0.1,0.6-0.5,1.1-0.9,1.2c-0.1,0-0.1,0-0.2,0c-0.5-0.1-0.7-0.8-0.7-1.5l0,0c0.1-1.3,0.2-2.6,0.3-3.9c0.1-1.3,0.1-2.6,0.2-3.9
						c0-0.6,0.2-3,0.2-3.7c0.2,0,0.6-1.7,0.9-1.7c0.7-0.1,1.3-0.2,1.9-0.4"/>
					<path class="st2" d="M209.6,492.2c-0.8-1.3-1.5-3.5,1.1-4.4c1.4-0.4,3.5-0.4,5.7-0.3c4.1,0.3,8.4,1.1,8.4,1.1s3.9,1.7,2.6,4.7
						c0,0-0.1,0.1-0.3,0.3c0.3,0.2,0.6,0.4,1,0.6c1.8,1,2.5,2.2,2.6,3.3c0.1,1.3-0.6,1.7-1.2,1.6c-0.2,0-0.3-0.1-0.5-0.1
						c-1.6-0.7-2.8-2.7-3.6-4.3l0.7,9.8c0,0,0.4,6.2-6.1,6.8c0,0-0.5,0-1.2,0c-2.6-0.2-8.5-1.4-8.4-9.2l0.7-8.3
						c-0.1-0.1-0.2-0.1-0.2-0.2c-0.7,1.5-1.9,3.6-3.6,4.1c-0.1,0-0.3,0.1-0.5,0.1c-0.6,0-1.3-0.4-1.2-1.8c0.1-1.1,0.7-2.1,2.5-3
						C208.8,492.8,209.3,492.5,209.6,492.2 M211.8,478.1c-0.1,0-0.1,0-0.2,0c0,0,0,0-0.1,0c-0.8-0.1-8.9-0.4-11.6,5.4
						c0,0-3.5-3.5-9-3.9c-1.2-0.1-2.5,0-3.8,0.3c-2.9,0.6-7.8,2.5-8.1,8.5c0,0-6.5,1.1-7.7,9.1c-0.5,3,0.1,10.3,4.6,12.9
						c0,0-0.9,2.2-0.5,4.8c0.3,2.3,1.5,4.9,4.9,6.7c0.7,0.4,1.6,0.7,2.6,1c0.8,0.2,1.8,0.4,2.7,0.4c0.3,0,0.7,0,1,0
						c1.5,0,3.1-0.3,4.4-0.9c1.4-0.6,2.6-1.7,3.3-3.3c0,0,0.1,0.7,0.7,1.6c1.1,1.9,3.7,5,10,5.4c0.1,0,0.1,0,0.2,0
						c0,0,2.2,0.2,4.6-0.6c1.2-0.4,2.4-0.9,3.5-1.8c0.9-0.8,1.7-1.8,2.1-3.1c0,0,0.9,0.6,2.2,1.3c1.1,0.5,2.4,1,4,1.3
						c0.4,0.1,0.9,0.1,1.3,0.2c2.4,0.2,5-0.4,7.2-2.7c0,0,0.6-0.6,1.2-1.8c1.3-2.4,2.8-6.9-0.6-12.1c0,0,7.2-4.3,4-13.2
						c0,0-2.9-7.2-9.2-7.7c-0.6,0-1.1,0-1.8,0.1C223.6,485.9,223.1,478.8,211.8,478.1"/>
					<path class="st1" d="M218.4,503.5C218.4,503.5,218.4,503.5,218.4,503.5c0.6,0,1-0.5,1-0.5c0.1-0.1,0.2-0.2,0.4-0.2
						c0.1,0,0.2,0,0.3,0.1c0.2,0.2,0.2,0.5,0.1,0.7c0,0-0.6,0.7-1.4,0.9l0,1.6c0,0.2-0.1,0.3-0.3,0.3c0,0,0,0,0,0
						c-0.2,0-0.3-0.2-0.3-0.3l0-1.6c-0.5-0.1-1-0.5-1.4-1c-0.2-0.2-0.1-0.5,0.1-0.7c0.1-0.1,0.2-0.1,0.3-0.1c0.1,0,0.3,0.1,0.4,0.2
						C217.8,503.2,218.1,503.4,218.4,503.5 M214.5,498.3c-0.6,0-1.1-0.6-1.1-1.2c0-0.6,0.5-1.1,1.1-1c0,0,0,0,0,0
						c0.6,0,1.1,0.6,1.1,1.2C215.5,497.9,215.1,498.4,214.5,498.3C214.5,498.3,214.5,498.3,214.5,498.3 M222.3,498.8
						c-0.6,0-1.1-0.6-1.1-1.2c0-0.6,0.5-1.1,1.1-1c0,0,0,0,0,0c0.6,0,1.1,0.6,1.1,1.2C223.4,498.4,222.9,498.8,222.3,498.8
						C222.4,498.8,222.4,498.8,222.3,498.8 M221.4,492.9c0,0-0.6,1.8-2.8,1.7c-0.1,0-0.2,0-0.3,0c-2.3-0.3-2.5-2-2.5-2
						s-1.4,1.9-3.3,1.7c-0.5,0-1-0.2-1.5-0.5l-0.7,8.3c-0.1,7.7,5.8,9,8.4,9.2c0.7,0,1.2,0,1.2,0c6.5-0.6,6.1-6.8,6.1-6.8l-0.7-9.8
						c0,0,0,0,0,0c-0.4,0.2-0.9,0.3-1.3,0.2C223.2,494.9,222.3,494.3,221.4,492.9"/>
					<path class="st9" d="M222.3,496.6C222.3,496.6,222.3,496.6,222.3,496.6c-0.6,0-1.1,0.4-1.1,1c0,0.6,0.5,1.1,1.1,1.2
						c0,0,0,0,0,0c0.6,0,1.1-0.4,1.1-1C223.4,497.1,222.9,496.6,222.3,496.6"/>
					<path class="st9" d="M214.5,496.1C214.4,496.1,214.4,496.1,214.5,496.1c-0.6,0-1.1,0.4-1.1,1c0,0.6,0.5,1.1,1.1,1.2
						c0,0,0,0,0,0c0.6,0,1.1-0.4,1.1-1C215.5,496.7,215,496.2,214.5,496.1"/>
					<path class="st10" d="M219.8,502.7c-0.1,0-0.3,0-0.4,0.2c0,0-0.5,0.6-1,0.5c0,0,0,0,0,0c-0.3,0-0.7-0.3-1-0.7
						c-0.1-0.1-0.2-0.2-0.4-0.2c-0.1,0-0.2,0-0.3,0.1c-0.2,0.2-0.2,0.5-0.1,0.7c0.4,0.6,0.9,0.9,1.4,1l0-0.5c0-0.2,0.1-0.3,0.3-0.3
						c0,0,0,0,0,0c0.2,0,0.3,0.2,0.3,0.3l0,0.4c0.8-0.1,1.4-0.8,1.4-0.9c0.2-0.2,0.1-0.5-0.1-0.7C220,502.8,219.9,502.7,219.8,502.7
						"/>
					<path class="st10" d="M218.5,503.6C218.5,503.6,218.5,503.6,218.5,503.6c-0.2,0-0.3,0.1-0.3,0.3l0,0.5l0,1.6
						c0,0.2,0.1,0.3,0.3,0.3c0,0,0,0,0,0c0.2,0,0.3-0.1,0.3-0.3l0-1.6l0-0.4C218.8,503.8,218.6,503.6,218.5,503.6"/>
					<path class="st11" d="M209.6,492.2c-0.4,0.3-0.8,0.6-1.5,0.9c-1.8,0.8-2.4,1.9-2.5,3c-0.1,1.3,0.6,1.7,1.2,1.8
						c0.2,0,0.3,0,0.5-0.1c1.6-0.5,2.8-2.6,3.6-4.1c-0.2-0.1-0.3-0.3-0.5-0.4C210.4,493.2,210,492.8,209.6,492.2"/>
					<path class="st11" d="M227,493.6c-0.3,0.3-0.9,0.8-1.6,1.1c0,0,0,0,0,0c0.8,1.6,2,3.7,3.6,4.3c0.1,0.1,0.3,0.1,0.5,0.1
						c0.6,0,1.3-0.3,1.2-1.6c-0.1-1.1-0.8-2.2-2.6-3.3C227.6,494,227.3,493.8,227,493.6"/>
					<path class="st2" d="M216.4,487.5c-2.2-0.1-4.3-0.1-5.7,0.3c-2.6,0.8-1.9,3-1.1,4.4c0.4,0.6,0.7,1.1,0.7,1.1
						c0.2,0.2,0.3,0.3,0.5,0.4c0.1,0.1,0.2,0.1,0.2,0.2c0.5,0.4,1,0.5,1.5,0.5c1.9,0.1,3.3-1.7,3.3-1.7s0.1,1.7,2.5,2
						c0.1,0,0.2,0,0.3,0c2.1,0.1,2.8-1.7,2.8-1.7c0.9,1.4,1.8,1.9,2.7,2c0.5,0,0.9-0.1,1.3-0.2c0.7-0.3,1.3-0.8,1.6-1.1
						c0.2-0.2,0.3-0.3,0.3-0.3c1.3-3-2.6-4.7-2.6-4.7S220.5,487.8,216.4,487.5"/>
					<path class="st4" d="M158.7,538.9c-0.1,0.1-0.1,0.1-0.2,0.1c0,0.2,0.1,0.3,0.1,0.5C158.6,539.3,158.7,539.1,158.7,538.9
						 M153.6,531.6c-0.2,0-0.3,0-0.5,0.1c-0.5,0.3-0.5,1-0.4,1.6c0.2,0.9,0.6,1.9,1.1,2.7c0.9,1.8,2.1,3.4,3.5,4.7
						c0,0,0.1,0.1,0.1,0.1c0,0,0.1,0,0.1,0c-0.1-0.1-0.1-0.2-0.2-0.2c0,0-0.1-0.1-0.1-0.1c-0.1,0-0.1,0-0.2-0.1
						c-0.5-0.4-0.9-0.8-1.2-1.3c0,0,0-0.1-0.1-0.1c-0.1-0.2-0.3-0.4-0.4-0.5c-0.5-0.6-0.9-1.5-1.1-1.8c-0.1-0.3-0.1-0.5,0.1-0.6
						c-0.4-0.7-0.7-1.4-1-2.1c-0.1-0.2-0.1-0.3,0-0.5c0,0,0-0.1,0-0.1c0-0.2,0-0.3,0.1-0.4c0-0.1,0.1-0.2,0.1-0.3c0,0,0,0,0,0
						c0.1-0.1,0.3-0.2,0.4-0.2c0.1,0,0.3,0.1,0.4,0.2c0.3,0.3,0.5,0.6,0.7,1c0.7,0.9,1.3,1.9,2,2.9c-0.1-0.4-0.1-0.8-0.1-1.3
						c0,0,0,0,0,0c-0.6-0.9-1.2-1.7-1.9-2.4C154.6,532.1,154.1,531.6,153.6,531.6"/>
					<path class="st4" d="M153.9,532.1c-0.2,0-0.3,0.1-0.4,0.2c0,0.1-0.1,0.1-0.1,0.2c0,0-0.1,0.1-0.1,0.1c-0.1,0.1-0.1,0.3-0.1,0.4
						c0,0,0,0.1,0,0.1c-0.1,0.1-0.1,0.3,0,0.5c0.3,0.7,0.6,1.4,1,2.1c-0.1,0.1-0.2,0.4-0.1,0.6c0.2,0.3,0.6,1.2,1.1,1.8
						c0.1,0.2,0.3,0.4,0.4,0.5c0,0,0,0.1,0.1,0.1c0.3,0.5,0.7,1,1.2,1.3c0.1,0,0.1,0.1,0.2,0.1c-0.3-0.3-0.5-0.6-0.7-0.9
						c-0.2-0.3,0-0.5,0.2-0.6c0,0,0,0,0,0c0-0.1,0.1-0.2,0.1-0.2c0,0,0.1,0,0.1,0c0.1,0,0.1,0.1,0.1,0.1c0-0.1,0-0.2,0.1-0.3
						c-0.4-0.6-0.9-1.2-1.3-1.8c-0.8-1.1-1.6-2.2-2.4-3.4c-0.3-0.4,0.1-0.8,0.5-0.8c0.1,0,0.2,0.1,0.3,0.2c0.2,0.3,0.5,0.6,0.7,0.9
						c0.1,0.1,0.1,0.1,0.1,0.2c0.6,0.9,1.2,1.7,1.8,2.6c0.1,0.2,0.2,0.3,0.3,0.5c0-0.3-0.1-0.6-0.1-0.9c-0.6-1-1.3-1.9-2-2.9
						c-0.2-0.4-0.4-0.7-0.7-1C154.1,532.2,154,532.2,153.9,532.1"/>
					<path class="st4" d="M153.8,532.7c-0.4,0-0.7,0.4-0.5,0.8c0.8,1.1,1.6,2.2,2.4,3.4c0.4,0.6,0.9,1.2,1.3,1.8
						c0,0.1-0.1,0.2-0.1,0.3c0,0-0.1-0.1-0.1-0.1c0,0-0.1,0-0.1,0c-0.1,0-0.2,0.1-0.1,0.2c0,0,0,0,0,0c-0.2,0.1-0.3,0.3-0.2,0.6
						c0.2,0.3,0.4,0.6,0.7,0.9c0,0,0.1,0.1,0.1,0.1c0.1,0.1,0.1,0.2,0.2,0.2c0,0,0,0,0,0c0.1,0.1,0.2,0.2,0.3,0.2
						c0.2,0,0.4-0.1,0.4-0.3c-0.5-1.1-0.9-2.4-1.1-3.6c-0.1-0.2-0.2-0.3-0.3-0.5c-0.6-0.9-1.2-1.7-1.8-2.6c0-0.1-0.1-0.1-0.1-0.2
						c-0.2-0.3-0.5-0.6-0.7-0.9C154.1,532.7,153.9,532.7,153.8,532.7"/>
					<path class="st4" d="M158.6,529.1c0.1,0,0.1,0,0.2,0c0.2,0,0.4,0.2,0.6,0.4c0.3,0.4,0.2,1,0.2,1.5c0,0.1,0,0.1,0,0.2
						c0.1,0.8,0.1,1.6,0,2.4c0,1.1,0,2.2,0,3.4c0,0.2-0.1,0.4-0.3,0.5c0,0.2,0,0.3,0,0.5c0,0.2-0.2,0.4-0.4,0.5c0,0.1,0,0.2-0.1,0.3
						c0,0,0,0.1,0,0.1c0,0.1,0,0.2-0.1,0.3c0,0.2-0.1,0.4-0.1,0.6c0-0.2-0.1-0.3-0.1-0.5c0,0,0,0,0,0c-0.1,0-0.2-0.1-0.2-0.2
						c-0.2-1.4-0.4-2.8-0.3-4.3c0-0.5,0-1,0-1.4c0-0.3-0.1-0.6-0.1-0.8c-0.1-0.5,0-1.1,0.1-1.6c0-0.4,0.1-0.8,0.2-1.2
						C158.1,529.2,158.4,529.1,158.6,529.1 M158.8,527.9c-0.7,0-1.3,0.3-1.6,1.1c-0.3,0.7-0.3,1.6-0.4,2.4c-0.1,1-0.1,2,0,3
						c0,0.2,0,0.4,0,0.6c0,0.4,0.1,0.8,0.1,1.3c0,0.3,0.1,0.6,0.1,0.9c0.2,1.3,0.5,2.5,1.1,3.6c0,0.1,0.1,0.2,0.1,0.3
						c0,0,0.1,0.1,0.1,0.1c0-0.2,0.1-0.4,0.3-0.5c0,0,0,0,0,0c-0.1-0.1-0.1-0.2,0-0.4c0,0,0.1-0.1,0.1-0.1c0,0,0.1,0,0.1,0
						c0-0.1,0.1-0.1,0.1-0.2c0.1-0.1,0.2-0.3,0.3-0.5c0.2-0.3,0.4-0.7,0.7-1c0-0.1,0.1-0.1,0.1-0.2c0.2-1.1,0.4-2.3,0.5-3.4
						c0.1-1,0.2-2,0.2-3.1c0-0.9,0.1-1.8-0.4-2.7C160,528.3,159.4,527.9,158.8,527.9"/>
					<path class="st4" d="M158.6,529.1C158.6,529.1,158.6,529.1,158.6,529.1c-0.3,0-0.5,0.1-0.5,0.4c-0.1,0.4-0.2,0.8-0.2,1.2
						c-0.1,0.5-0.1,1-0.1,1.6c0,0.3,0,0.6,0.1,0.8c0,0.2,0,0.3,0.1,0.5c0,0.3,0,0.7,0,1c0,1.4,0.1,2.8,0.3,4.3
						c0,0.2,0.1,0.2,0.2,0.2c0,0,0,0,0,0c0.1,0,0.1,0,0.2-0.1c0.1-0.1,0.1-0.2,0.1-0.3c0,0,0-0.1,0-0.1c0-0.1,0-0.2,0-0.3
						c0,0,0.1,0,0.1,0c0.2-0.1,0.4-0.2,0.4-0.5c0-0.2,0-0.3,0-0.5c0.2-0.1,0.3-0.2,0.3-0.5c0-1.1,0-2.2,0-3.4c0.1-0.8,0.1-1.6,0-2.4
						c0-0.1,0-0.1,0-0.2c0-0.4-0.1-0.8-0.3-1.2c0-0.1-0.1-0.1-0.1-0.2C159.1,529.2,158.9,529.1,158.6,529.1"/>
					<path class="st4" d="M161.2,538.3c0.3-0.4,0.6-0.7,0.9-1.1c0.1-0.1,0.2-0.2,0.3-0.3c-0.3,0.4-0.6,0.8-0.9,1.1
						C161.4,538.2,161.3,538.3,161.2,538.3 M163.6,534.7c-0.9-0.1-2,1.4-2.4,1.9c-0.4,0.5-0.8,1-1.1,1.6c0,0.1-0.1,0.1-0.1,0.2
						c-0.2,0.3-0.4,0.7-0.7,1c-0.1,0.2-0.2,0.4-0.3,0.5c0,0.1-0.1,0.1-0.1,0.2c-0.1,0-0.1,0-0.1,0c-0.1,0-0.1,0-0.1,0.1
						c-0.1,0.1-0.1,0.2,0,0.4c0,0,0,0,0,0c-0.2,0.1-0.3,0.3-0.3,0.5c0,0.3,0.3,0.7,0.6,0.7c0.1,0,0.2,0,0.3-0.1
						c1.2-0.9,2.4-1.9,3.3-3c0.5-0.6,0.9-1.2,1.3-1.8c0.3-0.5,0.9-1.2,0.3-1.8C164,534.8,163.8,534.7,163.6,534.7"/>
					<path class="st4" d="M241.7,543.8c-0.1,0-0.2,0-0.3,0c-1,0.2-0.4,1.6-0.2,2.2c0.5,1,1.2,1.9,2.1,2.5c0,0,0.1,0,0.1,0
						c0.1,0,0.1,0,0.2-0.1c0,0,0.1,0.1,0.2,0.1c0,0,0-0.1,0-0.1c0-0.3-0.1-0.6-0.1-0.9c-0.1,0.1-0.2,0.2-0.3,0.2c0,0,0,0,0,0
						c0,0,0,0,0,0c0,0-0.1,0-0.1,0c-0.1,0-0.2-0.1-0.3-0.2c-0.5-0.7-0.9-1.4-1.2-2.3c0-0.1,0-0.2,0-0.3c-0.1-0.3-0.1-0.5,0-0.5
						c0,0,0,0,0,0c0,0,0,0,0.1,0c0-0.1,0.1-0.1,0.2-0.1c0-0.2,0.2-0.3,0.4-0.3c0.1,0,0.2,0,0.3,0.1c0.4,0.4,0.7,0.9,1,1.4
						c0-0.2,0-0.3,0-0.5c0,0,0,0,0-0.1C243.2,544.7,242.4,543.8,241.7,543.8"/>
					<path class="st4" d="M242.3,544.3c-0.2,0-0.3,0.1-0.4,0.3c-0.1,0-0.1,0.1-0.2,0.1c-0.1,0.1-0.1,0.2-0.1,0.4c0,0,0,0,0,0
						c0,0.1,0,0.2,0,0.3c0.3,0.8,0.6,1.6,1.2,2.3c0.1,0.1,0.2,0.2,0.3,0.2c0,0,0.1,0,0.1,0c0,0,0,0,0,0c0.1,0,0.2-0.1,0.3-0.2
						c-0.1-0.6-0.1-1.2-0.1-1.8c-0.2-0.5-0.6-1-1-1.4C242.5,544.3,242.4,544.3,242.3,544.3"/>
					<path class="st4" d="M244.8,541.2c0.1-0.4,0.2-0.8,0.3-1.3c0.1-0.2,0.3-0.3,0.5-0.3c0.2,0,0.4,0.2,0.5,0.4
						c0.1,0.3,0.1,0.6,0.1,0.9c0,0.2-0.1,0.3-0.2,0.4c0,0.1,0,0.1,0,0.2c0.1,0.7,0.1,1.4-0.1,2.2c0,0.1-0.1,0.2-0.2,0.3
						c-0.1,0.9-0.3,1.8-0.6,2.7c-0.1,0.2-0.3,0.3-0.5,0.3c0,0-0.1,0-0.1,0c0,0.2,0,0.5-0.1,0.7c0,0.2-0.1,0.2-0.3,0.2
						c-0.1,0-0.2-0.1-0.2-0.3c0-1.4,0.2-2.7,0.4-4c0.1-0.6,0.2-1.2,0.3-1.8C244.7,541.6,244.8,541.4,244.8,541.2 M245.7,539.2
						c-0.5,0-0.8,0.4-1,0.9c-0.3,0.9-0.6,1.8-0.8,2.7c-0.2,0.8-0.2,1.7-0.3,2.5c0,0.2,0,0.3,0,0.5c0,0.6,0,1.2,0.1,1.8
						c0,0.3,0.1,0.6,0.1,0.9c0,0,0,0.1,0,0.1c0,0.2,0.2,0.3,0.4,0.3c0.1,0,0.2,0,0.3-0.1c0.6-0.6,0.8-1.7,1.1-2.5
						c0.3-0.9,0.6-1.9,0.8-2.9c0.2-0.9,0.4-1.8,0.4-2.7c0-0.6-0.3-1.4-1-1.5C245.8,539.2,245.7,539.2,245.7,539.2"/>
					<path class="st4" d="M245.6,539.6c-0.2,0-0.4,0.1-0.5,0.3c-0.1,0.4-0.2,0.8-0.3,1.3c0,0.2-0.1,0.4-0.1,0.6
						c-0.1,0.6-0.3,1.2-0.3,1.8c-0.2,1.3-0.4,2.6-0.4,4c0,0.2,0.1,0.3,0.2,0.3c0.1,0,0.2-0.1,0.3-0.2c0-0.2,0-0.5,0.1-0.7
						c0,0,0.1,0,0.1,0c0.2,0,0.4-0.1,0.5-0.3c0.2-0.9,0.4-1.8,0.6-2.7c0.1-0.1,0.2-0.2,0.2-0.3c0.2-0.7,0.2-1.4,0.1-2.2
						c0-0.1,0-0.1,0-0.2c0,0,0,0,0.1,0c0.1-0.1,0.2-0.2,0.2-0.4c0-0.3,0-0.6-0.1-0.9C246,539.8,245.8,539.6,245.6,539.6"/>
					<path class="st30" d="M162.9,445c-4-0.3-7.2,2.9-7.2,7c0,4.1,3.3,7.7,7.3,8c4,0.3,7.2-2.9,7.2-7
						C170.2,448.8,166.9,445.2,162.9,445"/>
				</g>
			</g>
		</g>
	</g>
	<g>
		<g class="st43">
			<defs>
				<polygon id="SVGID_2_" class="st43" points="162.3,760.8 158.7,574.8 273.2,580.8 276.7,766.8 				"/>
			</defs>
			<clipPath id="SVGID_5_">
				<use xlink:href="#SVGID_2_"  style="overflow:visible;"/>
			</clipPath>
			<g style="clip-path:url(#SVGID_5_);">
				<path class="st41" d="M188.7,664.3l0,0.7C188.7,664.7,188.7,664.4,188.7,664.3 M208,629.6c0,0,0,0.6,0.1,1.3L208,629.6
					 M197.1,592c-2.4-0.1-4.5-2.2-4.7-4.7l-0.3-3.1c-0.2-2.6,1.7-4.8,4.2-4.8l0.5,0c0.1,0,0.2,0,0.3,0c2.4,0.1,4.5,2.2,4.7,4.7
					l0.3,3.1c0.2,2.6-1.7,4.8-4.2,4.8l-0.5,0C197.3,592,197.2,592,197.1,592 M196.9,576.8c-3.6-0.2-6.5,2.6-6.4,6.3l-1.7,81.2
					l0.8-10.2c0.9-7.7,1.5-15.5,1.4-21l17-3.6l-4.5-46.3C203.2,579.9,200.3,577,196.9,576.8C196.9,576.8,196.9,576.8,196.9,576.8"/>
				<path class="st41" d="M222,604.1c-4.1-0.2-7.5,2.5-7.7,6.2l-1.4,22c0.3-0.6,0.4-1.1,0.4-1.1l17.5,3.4l-0.6-22.8
					c-0.1-3.7-3.4-7.1-7.5-7.7C222.5,604.1,222.2,604.1,222,604.1"/>
				<path class="st41" d="M245.2,607.3c-4-0.2-7.3,2.6-7.6,6.6l-1.3,21.6c0,0,0,0,0,0l17.3,3.4l-0.6-23.8c-0.1-3.8-3.2-7.2-7.2-7.7
					C245.5,607.3,245.4,607.3,245.2,607.3"/>
				<path class="st41" d="M267.5,620.3c-3-0.2-5.6,1.8-6.3,4.9l-3,15.3c0.4-0.5,0.5-1,0.5-1l10.5,2.2c2.2,0.4,3.1,1,3.1,3l1.8-16.7
					c0.3-3.3-1.9-6.6-5.2-7.6C268.4,620.4,267.9,620.3,267.5,620.3"/>
				<path class="st41" d="M168,651.9c-1.9-0.1-3.7-1.4-4.4-3.3l-1.4-3.7c-1-2.5,0.2-5.2,2.6-6c0.5-0.2,1.1-0.2,1.6-0.2
					c1.9,0.1,3.7,1.4,4.4,3.3l1.4,3.7c1,2.5-0.2,5.2-2.6,6C169.1,651.9,168.6,652,168,651.9 M208,629.6l-17,3.6
					c0.1,5.4-0.6,13.3-1.4,21l-0.8,10.2l0,0c0,0,0,0,0,0c0,0.1,0,0.3,0,0.7c-0.1,1.1-0.3,3.1-1.5,3.7c-0.3,0.2-0.7,0.3-1,0.3
					c-1.3-0.1-2.3-1.9-2.3-1.9l8.5,20.4l-19.2-46.2c-1.2-2.7-3.8-4.5-6.5-4.7c-0.7,0-1.4,0-2.1,0.2c-3.6,1-5.6,4.9-4.3,8.7
					c0,0,16.1,53.8,20.2,66.6c0,0,5.3,31.3,5.5,43.5c15,5.6,30,8,42.9,8.6c21.9,1.1,38-2.4,38-2.4c0.2-9.1-1-45.7-1-45.7
					c2.1-33.3,4.9-54.4,4.9-57.3l1.4-13.6c0-0.2,0-0.3,0-0.5c0-2.1-0.8-2.6-3.1-3l-10.5-2.2c0,0-0.1,0.5-0.5,1c-0.4,0.5-1,0.9-2,0.9
					c-0.2,0-0.4,0-0.7-0.1c-2.1-0.5-1.8-2.5-1.8-2.5l0,0l-17.3-3.4c0,0,0,0,0,0c0,0.2-0.3,2.4-2.4,2.3c-0.2,0-0.4,0-0.6-0.1
					c-2.3-0.5-2.4-3-2.4-3l0,0l-17.5-3.4c0,0-0.1,0.6-0.4,1.1c-0.4,0.6-1,1.2-2.2,1.1c-0.1,0-0.2,0-0.3,0c-1.5-0.2-2-1.5-2.3-2.5
					C208,630.2,208,629.6,208,629.6C208,629.6,208,629.6,208,629.6"/>
				<path class="st2" d="M197.1,579.4c-0.1,0-0.2,0-0.3,0l-0.5,0c-2.5,0-4.4,2.2-4.2,4.8l0.3,3.1c0.2,2.5,2.3,4.5,4.7,4.7
					c0.1,0,0.2,0,0.3,0l0.5,0c2.5,0,4.4-2.2,4.2-4.8l-0.3-3.1C201.6,581.5,199.5,579.5,197.1,579.4"/>
				<path class="st2" d="M166.5,638.7c-0.5,0-1.1,0-1.6,0.2c-2.4,0.8-3.6,3.5-2.6,6l1.4,3.7c0.7,2,2.5,3.2,4.4,3.3
					c0.5,0,1.1,0,1.6-0.2c2.4-0.8,3.6-3.5,2.6-6l-1.4-3.7C170.1,640.1,168.3,638.8,166.5,638.7"/>
			</g>
		</g>
	</g>
	<g>
		<path class="st27" d="M350.1,463.9c-0.9,0.9-0.1,2.3,0.9,2.8c1.3,0.6,2.6-0.4,3-1.6c0.4-1.4-0.4-3-1.9-3.2c-1.7-0.2-2.9,1.4-2.4,3
			c0.2,0.8,1.5,0.4,1.2-0.3c-0.3-0.8,0.4-1.8,1.3-1.4c0.8,0.3,1,1.2,0.7,1.9c-0.2,0.6-0.9,1.2-1.6,0.9c-0.7-0.3-1-1-0.9-1.7
			C350.5,464,350.3,463.8,350.1,463.9L350.1,463.9z"/>
	</g>
	<g>
		<path class="st27" d="M1018.7,609c2.2-2.7,4.2-5.6,6-8.7c0.4-0.6-0.5-1.1-0.9-0.6c-2,2.8-4,5.7-5.7,8.7
			C1017.8,608.9,1018.4,609.4,1018.7,609L1018.7,609z"/>
	</g>
	<path class="st30" d="M1025,727.2c-3.5-1.1-7.1-2.2-10.8-3.3c-10.3-3.1-20.9-6.3-28.7-10.7c-8.3-4.7-12.2-10.1-12.2-16.9
		c0-4.1,0.1-8.4,0.2-13c0.2-12.9,0.5-27.5-1.1-42c-1.8-16.7-5.9-30.5-12.3-42.4c-9.2-16.9-23.6-66.7-23.8-67.2l-5.8,1.7
		c0.6,2.1,14.8,51,24.3,68.5c6.1,11.1,9.9,24.2,11.6,40.1c1.5,14,1.3,28.5,1.1,41.2c-0.1,4.6-0.2,8.9-0.2,13.1
		c0,9.1,5,16.3,15.2,22.1c7.5,4.3,17.1,7.4,26.6,10.2C1014.3,728.3,1019.6,727.8,1025,727.2z"/>
	<path class="st1" d="M1009.3,540.3c0,0-7.2,19.5-29.2,22.9c-14.8,2.3-33.8-1.2-33.8-1.2s-11.8-0.6-12.8-1.5s-0.9-2.2,0.6-2.6
		c0,0-2.3,0-2.6-1.7c0,0-0.2-1.6,2.2-1.9c0,0-2.6,0-3-1.9c0,0-0.4-1.2,2.2-1.6c0,0-1.6-0.4-1.6-2.1c0,0,0.1-1.2,2.4-1.4
		c2.3-0.2,5.8-0.1,7.5-0.1c5.5,0,11-0.4,20.2-2.1c11.7-2.3,15.2-5.3,21.5-7.9c8-3.4,23.6-10.7,23.6-10.7"/>
	<path class="st2" d="M969.5,538.7c0.5,1.5,5.8,30.3,5.8,30.3s24.4-6.1,26.9-20c0,0,5.7-30.4-9.8-22.4
		C975.5,535.2,969.5,538.7,969.5,538.7z"/>
	<path class="st34" d="M992.3,526.6c0,0,28.3-20,41.7-3.9c14.7,17.6,17.2,70.8,17.2,70.8l-65.5,1.4l3.3-31
		C989.1,563.9,1002.1,549,992.3,526.6z"/>
	<polygon class="st46" points="932.2,542.4 939.8,539.6 932.1,522.4 927.5,524.1 	"/>
	<g>
		<path class="st27" d="M931.9,543.1c1.4-0.2,2.8-0.7,4.1-1.1c1.2-0.4,2.9-0.5,3.8-1.3c0.2-0.2,0.1-0.7-0.2-0.7
			c-1.2-0.2-2.8,0.5-3.9,0.9c-1.4,0.5-2.8,0.9-3.9,1.8C931.7,542.8,931.7,543.1,931.9,543.1L931.9,543.1z"/>
	</g>
	<g>
		<path class="st27" d="M339.6,194c-0.2,1,0.7,2.1,1.7,2.2c0.9,0.1,1.9-0.7,1.7-1.6c-0.1-0.3-0.5-0.3-0.6-0.1
			c-0.2,0.5-0.6,1-1.2,0.8c-0.7-0.2-0.9-0.9-1.2-1.4C339.9,193.8,339.7,193.8,339.6,194L339.6,194z"/>
	</g>
	<g>
		<polygon class="st19" points="441.2,309.1 694.8,314.7 696.5,479.3 441.2,471.3 		"/>
	</g>
	<g>
		<path class="st27" d="M441.4,308.7c3.7,0.4,7.4,0.4,11.2,0.6c4.4,0.2,8.8,0.3,13.1,0.5c9.9,0.3,19.8,0.7,29.7,1
			c10.6,0.3,21.2,0.7,31.9,1c10.1,0.3,20.1,0.6,30.2,0.9c8.4,0.3,16.8,0.5,25.2,0.7c0.9,0,1.7,0,2.6,0.1c1,0,1-1.5,0-1.6
			c-8.1-0.4-16.2-0.6-24.3-0.9c-9.9-0.3-19.8-0.6-29.7-0.9c-10.6-0.3-21.2-0.6-31.9-0.9c-10.1-0.3-20.1-0.5-30.2-0.8
			c-8.4-0.2-16.8-0.4-25.2-0.6c-0.9,0-1.7,0-2.6,0C440.9,307.9,440.9,308.6,441.4,308.7L441.4,308.7z"/>
	</g>
	<g>
		<path class="st4" d="M525.7,389.5c0,0-1.5-31.8-29.4-30.5C496.3,359,494.6,383.1,525.7,389.5z"/>
	</g>
	<path class="st30" d="M488,362.1c5.1,7.9-3.3,14.5-3.3,14.5c3.2,29.2-16.4,48-27.5,56.2c-39,28.8-79.9-6.8-79.9-6.8
		s-7.6,1.4-10.8-6.3c0,0-2.9-7.4,3.4-12.1c0,0-0.3-41.9,39.4-60.3c0,0,30.8-17,66.5,10.1C475.9,357.4,483.6,355,488,362.1"/>
	<path class="st2" d="M406.4,556.5c0,0-1.9-64.3,10.5-72.4c0,0,14.7-12.4,32.1-5.1c0,0,15.8,9.5,17,37.6c1.4,31.5,0.7,36.8,0.7,36.8
		L406.4,556.5z"/>
	<path class="st2" d="M421.6,480.9c0,0-4.2,1.6-13.1-7.5c-7.8-8-17.9-31.7-17.9-31.7l-14.9-1.8c-0.4,24.5,10.8,40.7,10.8,40.7
		c12.6,21,23.1,27,23.1,27"/>
	<path class="st2" d="M449.4,479.5c3.2-2.9,5.6-5.1,9.7-12.7c6.4-11.6,5.8-33.6,5.8-33.6l15.8-1.7c4.9,23.5-0.6,37.8-0.6,37.8
		c-6.4,25.5-15.1,37.9-15.1,37.9"/>
	<path class="st41" d="M377.8,440.1c0,0-0.7-8-0.1-14.6c0,0,3.4,2.8,5.8,4.2l8.5,5.5l-3,6.4L377.8,440.1z"/>
	<path class="st41" d="M479.2,431.7c0,0-2.2-10.3-3.7-17.4c0,0-2.8,3.4-5.3,6.6l-6.5,6.2l3,6.4L479.2,431.7z"/>
	<line class="st4" x1="404.5" y1="541.3" x2="406.4" y2="556.5"/>
	<path class="st4" d="M404.5,541.3c0,0,0,47.3-2.4,76.1c-2.1,25.1-9.3,59.9-9.3,59.9l27.6-0.3c0,0,8.2-39.4,10.9-60.4
		c2-15.5,4.2-37.9,4.2-37.9s3.9,44.3,5.8,60.5c1.9,16.2,5,39.9,5,39.9l25.8-1.1l-3.3-134.9L404.5,541.3z"/>
	<path class="st1" d="M440.5,481.8v-6.8h-10.1v6.8C430.4,481.8,435.3,484.4,440.5,481.8z"/>
	<path class="st27" d="M435.5,446.5c-5.2,0.4-12.7,3-12.3,16.5c0.4,14.5,13.7,17.5,20.6,11.4C450.7,468.3,451,445.3,435.5,446.5z"/>
	<path class="st27" d="M432.9,459.5c0,0-16.3-10.2-28.8,6.1c-1.6,2-2,4.5,0.5,6.7c3.8,3.2,10.3-3,13.1-6.3
		c3.8-4.4,12.4-4.7,14.3-4.3L432.9,459.5z"/>
	<g>
		<path class="st27" d="M487.6,361.2c1.1,0,2.1-0.8,3.1-1.4c0.9-0.5,1.8-1.1,2.6-1.6c1.4-0.8,2.8-1.6,4.2-2.3
			c3.5-1.6,7.3-2.3,11-3.2c1.3-0.3,0.7-2.2-0.5-2c-3.8,0.8-7.7,1.6-11.3,3.2c-1.4,0.7-2.8,1.5-4.2,2.3c-0.8,0.5-1.7,1.1-2.5,1.7
			c-1,0.6-2.3,1.3-2.9,2.4C487,360.7,487.2,361.2,487.6,361.2L487.6,361.2z"/>
	</g>
	<g>
		<path class="st27" d="M656,313.6c0.4-1.4,0.2-3.1,0.2-4.6c0-1.3,0.1-2.6,0.2-3.9c0.1-2.8,0.2-5.8,0-8.6c-0.1-0.9-1.5-1-1.5,0
			c-0.1,2.9-0.1,5.7-0.1,8.6c0,1.3-0.1,2.6,0,3.9c0,1.5-0.1,3.1,0.3,4.6C655.2,314.1,655.9,314.1,656,313.6L656,313.6z"/>
	</g>
	<g>
		<path class="st27" d="M687.5,142.1c9-1.1,18.5-0.8,27.1,1.9c4.3,1.4,8.5,3.4,12,6.2c3.6,2.8,7.4,6.8,7.8,11.7
			c0.2,2.1-0.4,4-1.8,5.5c-1.2,1.3-3,2.4-4.9,2.3c-1.8-0.1-3.4-1.3-3.9-3.1c-0.6-1.8-0.1-3.8,0.6-5.4c1.8-4,5.6-6.5,9.6-7.9
			c4.3-1.5,9-1.7,13.4-0.9c5.3,0.9,10.3,3.4,14.7,6.5c4.6,3.3,8.3,7.4,12.3,11.4c0.6,0.6,1.8-0.2,1.2-1c-3.3-4.3-7.5-8.2-11.9-11.5
			c-4.3-3.2-9.2-5.8-14.5-6.9c-4.8-1.1-10-1.1-14.8,0.4c-4.5,1.3-9,4-11.2,8.2c-1.8,3.4-2.4,8.3,1.2,10.8c3.5,2.5,8.2,0.3,10.4-3
			c2.9-4.4,0.7-9.9-2.2-13.6c-3.1-3.9-7.3-6.9-11.8-9c-10.4-4.9-22.3-5.3-33.4-3.2C687.1,141.6,687.1,142.1,687.5,142.1L687.5,142.1
			z"/>
	</g>
	<g>
		<path class="st27" d="M1063.2,465.7c1-9.7,0.5-20.5-3.8-29.4c-2-4.2-4.9-7.6-8.3-10.7c-3.2-2.9-6.6-5.4-9.6-8.4
			c-3.3-3.2-6.1-6.9-6.9-11.5c-0.2-1.2-2-0.7-1.8,0.5c1.3,8.4,8.7,13.7,14.8,18.9c3.4,2.9,6.7,5.9,9,9.7c2.6,4.2,4,9.1,4.8,13.9
			c0.9,5.7,0.8,11.4,0.9,17.1C1062.1,466.4,1063.1,466.4,1063.2,465.7L1063.2,465.7z"/>
	</g>
	<g>
		<path class="st27" d="M1032.9,399.6c0.1-1.9-0.4-4-0.8-5.9c-0.4-2-0.9-4-1.5-6c-0.3-1-1.9-0.6-1.6,0.5c0.5,1.9,1,3.9,1.5,5.8
			c0.4,1.9,0.9,3.9,1.6,5.7C1032.3,400.2,1032.9,400.2,1032.9,399.6L1032.9,399.6z"/>
	</g>
	<path class="st1" d="M940.1,544.9c0,0,5.6,0.2,7.1,3l-6.1-0.1L940.1,544.9z"/>
	<g>
		<path class="st27" d="M177.6,415.9c1.9-0.1,3.8-0.9,5.6-1.6c1.9-0.7,3.7-1.5,5.5-2.4c3.2-1.8,6.1-4,8.4-7
			c4.1-5.2,6.3-11.6,9.7-17.2c1.9-3.1,4.2-5.9,7.3-7.8c1.1-0.7,0.1-2.4-1-1.7c-5.6,3.4-8.6,9.3-11.5,14.9c-3,6.1-6.1,12.1-12,15.9
			c-1.9,1.2-3.9,2.2-6,3.2c-2,0.9-4.4,1.6-6.2,2.8C177.1,415.3,177.1,415.9,177.6,415.9L177.6,415.9z"/>
	</g>
	<path class="st4" d="M907,242.7c0,0,10.8,18.6,24.6,22.6l4.6-16.2c0,0-6.7-11.3-15.9-14.2C911.2,232,907,242.7,907,242.7z"/>
	<path class="st27" d="M911.9,199.3c0,0-3.1,3.8-7.1,6c0,0-0.5-4,0.5-6.5L911.9,199.3z"/>
	<g>
		<path class="st5" d="M904.2,199.4c0,0-0.6-6.8,6.1-8.4c0,0,6.1-1.4,12.9,0.4c6.8,1.7,6.7,9.1,6.7,9.1L904.2,199.4z"/>
		<path class="st34" d="M921.5,200.1c0,0-15.6-7.4-23.3-6.1c0,0-6.1,0.9-3.1,4.1c0,0,2,1.9,6,1.4L921.5,200.1z"/>
	</g>
	<path class="st4" d="M404.5,541.3c0,0,17.3-8.9,17.1-60.4c0,0,3-1.6,3.9-1.9v27.7h20.8l-1.2-29.9l3.6,0.8l2.7,30
		c0,0,1.1,35.1,17.3,35.5l0.4,17.9"/>
</g>
</svg>
